<svg xmlns="http://www.w3.org/2000/svg" width="2001" height="1367"><path fill="currentColor" fill-rule="evenodd" d="M0 683.5V1367l976.75-.015c537.213-.009 976.253-.346 975.645-.75s-1.675-2.535-2.371-4.735c-6.156-19.443-22.058-34.479-43.257-40.899-2.823-.855-.989-3.219 3.535-4.556 12.317-3.638 25.874-13.964 32.884-25.045 3.011-4.759 6.435-12.361 8.213-18.233.855-2.823 3.219-.989 4.556 3.535 3.638 12.317 13.964 25.874 25.045 32.884 4.759 3.011 12.361 6.435 18.233 8.213 2.819.854.992 3.217-3.535 4.572-18.579 5.56-35.438 22.744-40.515 41.297l-1.032 3.768 23.675-.268 23.674-.268.251-683.25.25-683.25H0zm.497.5c0 375.925.114 529.712.253 341.75.139-187.963.139-495.538 0-683.5C.611 154.287.497 308.075.497 684M630 8.614c-49.685 2.46-84.79 7.444-129.89 18.441-29.446 7.18-33.296 8.295-57.61 16.688-54.141 18.688-111.603 47.54-154.5 77.575-15.331 10.734-38.117 27.552-40.058 29.566-.856.889-4.407 3.866-7.891 6.616-19.35 15.277-65.448 60.089-75.218 73.12-1.188 1.584-4.06 4.905-6.384 7.38s-5.963 6.797-8.087 9.604-7.676 10.007-12.338 16C96.749 316.663 59.924 385.072 37.955 449.5 1.606 556.096-7.332 669.538 12.074 778c10.099 56.449 28.177 113.579 51.738 163.5 29.111 61.681 61.955 111.374 107.735 163 41.846 47.191 101.751 95.57 159.953 129.179 14.468 8.355 43.762 23.327 54.105 27.653 3.242 1.356 10.17 4.342 15.395 6.636 24.548 10.778 59.068 22.373 92.5 31.069 33.057 8.599 44.199 10.794 78 15.37 30.105 4.075 47.401 5.059 88 5.004 47.997-.064 64.997-1.507 117.458-9.967 16.301-2.629 22.238-3.992 54.042-12.407 86.32-22.839 164.799-62.708 237.5-120.654 54.376-43.34 97.993-91.125 138.178-151.383 18.356-27.525 47.979-83.298 56.775-106.891.739-1.985 3.442-8.784 6.005-15.109 9.666-23.85 20.745-59.683 28.502-92.189 15.814-66.266 20.262-149.085 11.994-223.311-12.2-109.509-52.69-214.341-117.743-304.84-25.166-35.011-45.739-59.226-73.304-86.282-26.356-25.87-53.832-49.367-75.272-64.373-22.987-16.088-30.105-20.817-40.635-26.996-6.875-4.034-14.075-8.356-16-9.605s-6.65-3.949-10.5-6.001a33593 33593 0 0 0-15.337-8.167c-13.269-7.06-38.165-18.403-58.184-26.508C844.11 30.891 776.578 15.285 711.5 10.477c-20.018-1.479-67.389-2.562-81.5-1.863m-32.541 183.453c-.363.586-.445 1.281-.183 1.543s.743-.218 1.069-1.067c.676-1.762.1-2.072-.886-.476m-3.277 6.433c-.879 1.928-.858 2.5.089 2.499.676 0 1.294-1.125 1.373-2.5.181-3.127-.037-3.127-1.462.001m57.849 14c0 .55.436 1.675.969 2.5s.969 1.05.969.5-.436-1.675-.969-2.5-.969-1.05-.969-.5m-68.952 18.083c.048 1.165.285 1.402.604.605.289-.722.253-1.585-.079-1.917s-.568.258-.525 1.312M581.31 243.5c.005 3.3.192 4.529.415 2.732s.218-4.497-.01-6c-.229-1.503-.411-.032-.405 3.268m1.69 3c0 .825.177 1.5.393 1.5s.652-.675.969-1.5.139-1.5-.393-1.5c-.533 0-.969.675-.969 1.5m.349 10.5c0 4.675.173 6.587.383 4.25s.211-6.162 0-8.5c-.21-2.338-.383-.425-.383 4.25m-186.214-5.363c.207.475 1.606 3.2 3.108 6.056 7.012 13.325 10.744 36.165 8.703 53.257-2.395 20.062-11.811 37.467-40.06 74.05-20.104 26.035-28.116 39.472-33.262 55.785-7.639 24.216-5.281 45.967 8.307 76.64 10.003 22.58 11.983 32.601 8.477 42.891-2.181 6.402-9.137 13.869-15.629 16.778-4.198 1.881-7.024 2.37-13.8 2.386-7.648.018-9.21-.319-15.253-3.294-7.762-3.821-12.434-9.156-15.795-18.033-3.213-8.487-2.283-23.319 2.896-46.153 5.635-24.85 6.586-31.131 6.509-43-.072-11.159-2.452-23.463-6.251-32.309-5.458-12.713-16.766-26.464-28.297-34.412-7.733-5.33-19.678-11.722-20.455-10.946-.255.256.941 3.248 2.659 6.65 13.566 26.875 13.194 53.974-1.152 83.888-3.511 7.321-10.895 18.737-31.64 48.918-16.893 24.576-25.003 45.603-25.922 67.211-.905 21.295 2.983 36.122 17.442 66.5 9.437 19.827 17.853 41.678 20.318 52.75.704 3.163 1.546 5.741 1.871 5.73.325-.012 5.991-4.546 12.591-10.077 25.155-21.08 58.899-45.066 88.5-62.905 36.206-21.821 94.587-46.796 137.5-58.82 57.401-16.084 102.081-23.466 159-26.269 21.081-1.038 59.899-.77 77 .531 2.75.21 6.099.126 7.442-.186 2.235-.519 2.278-.627.5-1.272-1.068-.387-5.05-.783-8.849-.881-7.285-.187-8.992-.647-8.05-2.17.316-.512.098-.931-.484-.931s-1.059.723-1.059 1.607c0 1.114-.532 1.403-1.735.941-.954-.366-6.584-.794-12.51-.95s-11.042-.551-11.368-.877-1.623-.202-2.883.277c-2.845 1.082-6.709.182-5.846-1.362.372-.666.078-.619-.711.114-1.932 1.793-8.614 1.641-8.614-.196 0-1.073.457-1.202 1.768-.5 2.42 1.295 2.93 1.19 2.291-.474-.398-1.039.15-1.344 2.041-1.137 1.968.216 2.338-.014 1.551-.963-.748-.901-.543-1.459.74-2.014 2.822-1.22 4.333-1.368 3.712-.362-.316.511-1.106.63-1.755.266-.889-.5-.899-.357-.038.576.885.96 1.636.975 3.335.066 1.206-.646 2.455-.913 2.774-.593.32.32.153.581-.371.581s-.952.849-.952 1.886c0 1.127.518 1.688 1.285 1.393.707-.271 1.286-1.361 1.286-2.421 0-1.573.344-1.744 1.869-.928 1.027.55 2.224.678 2.66.285s.395-.04-.09.785-.978 2.4-1.097 3.5c-.118 1.1-.009 1.52.243.934.436-1.014 6.62-1.043 8.244-.04.422.261 1.42.061 2.219-.445 1.122-.71.917-.922-.905-.934-1.735-.011-2.197-.432-1.75-1.597.334-.87.607-1.995.607-2.5s.488-.918 1.083-.918c.596 0 .906.534.688 1.188s.42 2.003 1.417 3c2.161 2.161 3.572 2.433 1.848.356-1.433-1.727-.404-3.899 1.501-3.168.733.281 1.554-.026 1.822-.682.364-.888.729-.852 1.426.14.755 1.075 1.061 1.011 1.576-.332.972-2.534.811-2.78-1.44-2.192-1.518.397-1.931.159-1.531-.883.301-.785.111-1.427-.421-1.427-.533 0-.969.45-.969 1s-.675 1-1.5 1-1.5-.375-1.5-.833c0-.459-1.33-.834-2.956-.834s-2.724.375-2.441.834.065.833-.485.833-1.234-.379-1.52-.842-1.868-.761-3.515-.663c-3.213.191-4.447-1.368-3.358-4.245.583-1.538.428-1.517-1.272.17-1.353 1.342-1.562 2.044-.694 2.333.683.228 1.241.881 1.241 1.453 0 .67-.444.702-1.25.092-.687-.522-2.487-.829-4-.683s-2.75-.184-2.75-.734c0-.549.45-.721 1-.381s.999.029.998-.691c-.001-.764-1.355-1.402-3.25-1.532-2.394-.164-2.854.029-1.748.735 1.28.817 1.243.96-.25.973-2.173.019-2.179-.401-.049-3.651 1.687-2.575 1.681-2.591-.75-1.917-2.058.57-2.169.502-.693-.423.967-.606 2.199-.83 2.738-.496.558.344.725-.062.388-.94-.327-.851-1.066-1.255-1.643-.898-.618.382-.753.168-.326-.522.398-.644 1.142-.912 1.654-.595 1.793 1.108.911-1.563-1.219-3.693-1.336-1.336-3.626-2.237-6.045-2.378-2.141-.125-4.211-.569-4.599-.987s1.207-.516 3.544-.218c2.425.31 4.01.154 3.691-.362-.307-.498-1.657-.905-3-.905-2.838 0-3.307-2.407-.691-3.552.962-.421 2.087-.694 2.5-.607.413.088.75-.291.75-.841 0-1.315-.414-1.272-4.629.489-3.367 1.407-3.593 1.38-4.084-.5-.668-2.552-1.975-2.547-2.787.011-.349 1.1-1.11 2-1.69 2-.718 0-.704-.423.044-1.324.776-.935.786-1.636.035-2.387s-.699-1.289.178-1.831c.783-.484.988-.357.555.344-.462.748.3.986 2.333.729 1.66-.21 3.276.034 3.591.543.315.51 1.108.919 1.763.911.797-.011.742-.3-.166-.875-1.58-1.001-.795-1.583 3.357-2.487 2.904-.633 2.936-.601 1 .996-1.767 1.457-1.786 1.576-.168 1.016 1.007-.349 2.02-.635 2.25-.635s.418-.9.418-2c0-2.109-1.455-2.691-2.5-1-.34.55-1.322 1-2.181 1-1.272 0-1.333-.278-.328-1.489.68-.819 1.635-1.242 2.122-.941.488.301.887.036.887-.59 0-.745-1.038-.911-3-.48-3.521.773-3.775-.046-.946-3.058 1.807-1.923 1.861-2.261.448-2.803-.883-.339-1.35-.202-1.038.303.877 1.418-1.495 2.427-2.751 1.171-.817-.817-.778-1.113.146-1.113.692 0 .981-.45.641-1-.986-1.596-2.493-1.158-2.579.75-.063 1.394-.195 1.445-.65.25-1.077-2.829-3.636-3.688-6.183-2.075-1.205.762-1.188 1.117.114 2.42 1.126 1.126 1.82 1.233 2.646.407.615-.615 1.426-.811 1.802-.435.85.85.397 1.275-2.15 2.017-2.032.591-5.454-2.813-5.903-5.874-.271-1.844-1.597-3.146-1.597-1.568 0 .674-.477.931-1.06.571-.669-.413-.396-1.14.739-1.97 1.898-1.388 3.754-1.003 2.778.576-.954 1.544 1.203 1.045 2.562-.592 1.057-1.273.995-1.42-.378-.893-.912.35-1.641.139-1.641-.477 0-.609-.675-1.107-1.5-1.107s-1.387-.563-1.25-1.25c.29-1.448 1.809-2.719 3.25-2.719.55 0 .325.472-.5 1.05-1.143.8-.905.883 1 .35 1.375-.385 2.781-1.138 3.125-1.673.394-.613.868-.579 1.282.092.361.584 1.337.802 2.168.483 1.342-.515 1.338-.771-.034-2.288-.85-.939-1.244-2.008-.877-2.376.368-.368.217-.669-.337-.669-.553 0-1.532 1.154-2.174 2.564-1.036 2.273-1.337 2.394-2.661 1.071-1.96-1.96-1.892-2.726.172-1.934 1.119.43 1.427.256.941-.531-1.127-1.824-2.583-1.384-3.574 1.08-.728 1.812-.917 1.898-.968.441-.034-.995-.513-1.531-1.063-1.191-1.765 1.091-1.069-.358 1.177-2.45 2.472-2.303 2.256-2.779-1.791-3.939-2.581-.74-2.901-.578-3.03 1.531-.08 1.297.285 2.358.809 2.358s.675-.45.335-1c-.346-.559.4-.984 1.691-.964 2.273.035 2.265.072-.496 2.332-2.333 1.909-2.57 2.491-1.408 3.455.768.638 1.693.864 2.055.502s.658-.133.658.508c0 .642-.862 1.167-1.917 1.167-1.054 0-2.123.563-2.375 1.25-.354.967-.769.934-1.833-.147-.865-.878-.912-1.135-.126-.692.864.488 1.171-.005 1-1.603-.137-1.269-.54-2.533-.897-2.808-.356-.275-.789-1.85-.962-3.5-.412-3.933-1.906-6.093-2.995-4.331-.429.695-.301 1.842.285 2.547.759.916.743 1.284-.058 1.284-.617 0-1.122-.42-1.122-.933s-.907-1.22-2.015-1.572c-1.108-.351-1.756-1.057-1.441-1.567.316-.51.071-.928-.544-.928s-.839-.451-.498-1.003q.619-1.003 2.486-.003c1.027.549 2.575.727 3.44.395.904-.347 1.572-.081 1.572.626 0 .966.322.963 1.5-.015.825-.685 1.464-1.977 1.421-2.872-.05-1.037-.262-1.174-.583-.378-.278.688-1.255 1.243-2.171 1.235-1.387-.013-1.426-.168-.231-.924 1.117-.707 1.174-1.223.258-2.327-.647-.78-.875-1.72-.506-2.089s-.872.087-2.758 1.014c-1.887.926-3.767 2.17-4.18 2.763-.838 1.205-2.952-1.286-2.168-2.555 1.086-1.756-1.532-1.645-3.606.154-4.062 3.523-3.985 2.118.247-4.521 2.279-3.575 4.624-6.464 5.211-6.421.586.043.504.306-.184.583-.687.278-1.25.944-1.25 1.48 0 .537.498.668 1.107.292.766-.474.902.248.441 2.346-.417 1.899-.23 3.298.501 3.75.8.495.97.104.541-1.248-.394-1.24.148-2.951 1.465-4.625 1.15-1.461 1.607-2.657 1.018-2.657a1.07 1.07 0 0 1-1.073-1.059c0-.582.357-.839.792-.569.436.269.858-.371.937-1.422.202-2.68-1.452-3.397-2.224-.965-.352 1.108-1.115 2.015-1.695 2.015q-1.056.001-.067-1.25c.544-.687 1.463-2.6 2.044-4.25.631-1.793 1.087-2.28 1.134-1.211.061 1.387.36 1.527 1.329.623 1.3-1.214 1.573-6.422.399-7.596-1.112-1.113.458-7.724 2.154-9.066 1.428-1.13 1.417-1.25-.112-1.25-2.004 0-2.167-1.087-.441-2.947 1-1.077 1-1.205 0-.641-.716.405-1.277.147-1.314-.603-.035-.72-.218-2.884-.408-4.809s.141-4.088.734-4.806c.793-.963.736-1.226-.218-1-.712.168-1.5-.256-1.752-.944s.029-1.25.625-1.25 1.083-.623 1.083-1.383c0-.761.945-1.631 2.101-1.933 1.286-.336 1.819-1.005 1.375-1.723-.55-.889-.912-.874-1.489.06-.42.68-1.286.913-1.924.518-.846-.523-.863-1.075-.063-2.039.759-.914.774-1.522.049-1.97-.577-.356-1.049-1.098-1.049-1.648s.408-.748.906-.44.394-.527-.233-1.855c-.627-1.329-1.485-2.203-1.907-1.943-.421.261-.766-.175-.766-.968 0-.794-.9-1.678-2-1.966-2.379-.622-2.486.124-.551 3.854.797 1.536 1.184 3.22.861 3.743s-1.031.105-1.575-.929c-.543-1.033-3.293-4.27-6.111-7.194s-4.674-5.233-4.124-5.132c2.046.378 3.5-.084 3.5-1.111 0-.582-.45-.781-1-.441s-1-.11-1-1c0-1.044-.443-1.341-1.25-.837-2.21 1.381-3.966 1.244-8.152-.634-5.86-2.63-9.12-3.211-17.548-3.129-4.937.048-7.919.54-8.838 1.46-1.183 1.183-.61 1.233 3.893.343 6.389-1.263 16.976.277 22.991 3.346 24.513 12.506 29.662 51.049 10.145 75.951-4.602 5.871-7.245 8.188-15.954 13.984-13.334 8.874-29.512 13.211-46.287 12.409-28.29-1.352-53.867-13.742-72.6-35.17-11.919-13.633-19.596-29.941-22.464-47.717-1.558-9.66-.864-18.538 3.214-41.099 2.859-15.823 3.243-20.06 3.293-36.407.051-16.701-.171-19.229-2.287-26-5.319-17.017-16.677-34.369-29.79-45.513-8.533-7.251-30.294-21.284-29.231-18.85m337.117 8.863c.011 2.2.216 2.982.455 1.738s.23-3.044-.02-4-.446.062-.435 2.262M581.158 263c0 1.375.227 1.938.504 1.25.278-.687.278-1.812 0-2.5-.277-.687-.504-.125-.504 1.25m2 5c0 1.375.227 1.938.504 1.25.278-.687.278-1.812 0-2.5-.277-.687-.504-.125-.504 1.25m105.342-.04c1.1 1.354 3.076 3.604 4.39 5l2.39 2.54-2.032-3c-1.118-1.65-3.093-3.9-4.39-5l-2.358-2zM581.158 269c0 1.375.227 1.938.504 1.25.278-.687.278-1.812 0-2.5-.277-.687-.504-.125-.504 1.25m-60.759 7.598c1.642 4.279 2.794 16.887 2.32 25.402-.676 12.16-2.967 18.38-18.048 49-14.304 29.043-16.08 34.823-16.131 52.5-.044 15.425 1.379 21.158 8.126 32.738 11.327 19.436 32.251 31.293 54.834 31.071 21.759-.214 35.907-10.731 41.065-30.525 2.004-7.69 1.422-13.903-1.919-20.496-2.192-4.326-10.481-13.288-12.29-13.288-.379 0-.392.297-.029.66.932.933-3.117 3.588-4.329 2.839-.569-.352-.998.533-.998 2.059 0 2.286.327 2.588 2.25 2.072 1.237-.331 2.843-.609 3.567-.616.861-.009 1.098-.707.683-2.014-.349-1.1-.216-2 .296-2 1.526 0 6.467 5.412 5.297 5.802-.75.25-.765.942-.05 2.279.951 1.776.595 2.336-1.293 2.037-.413-.065-.75.332-.75.882s.563 1.007 1.25 1.015q1.25.016-.25.985c-2.207 1.426-4.294 1.208-3.683-.385.433-1.128.002-1.184-2.331-.304-1.574.594-2.634 1.45-2.355 1.901s.851.608 1.271.348c.421-.259.765.183.765.984 0 1.869-1.128 1.853-3.024-.044-1.923-1.923-3.019-1.923-2.281 0 .341.889.01 1.5-.812 1.5-.762 0-2.211.267-3.218.594-1.208.392-1.417.294-.616-.288.892-.647.559-1.376-1.25-2.734-2.471-1.856-3.342-4.572-1.466-4.572.55 0 1 .45 1 1s.45 1 1 1 1-.702 1-1.559-.45-1.281-1-.941-1 .141-1-.441-.562-.946-1.25-.809c-.698.14-1.12-.522-.956-1.5.194-1.157-.352-1.75-1.613-1.75-1.46 0-1.839-.609-1.62-2.607l.286-2.606-1.962 2.106c-2.306 2.476-4.437 2.717-5.251.595-.455-1.186-.047-1.379 1.893-.892 1.879.472 2.473.226 2.473-1.023 0-.904.678-2.678 1.507-3.943 1.499-2.288 1.482-2.3-3-2.168-2.859.083-4.507-.298-4.507-1.043 0-1.94 2.771-3.626 4.868-2.961 1.08.343 2.253.155 2.607-.417.354-.573 1.966-1.041 3.584-1.041 2.78 0 3.405-.786 3.008-3.785-.115-.863.485-.723 1.83.429 1.1.942 1.729 2.152 1.397 2.689-.343.555-.084.655.6.232.864-.534.902-1.106.132-2.033-1.415-1.705 3.65-2.776 6.334-1.339 1.336.715 1.684.688 1.202-.093-.644-1.041 7.059-1.634 14.688-1.131 3.319.219 3.415-.304.576-3.143-1.258-1.258-1.931-1.542-1.598-.674.465 1.213-.431 1.506-4.696 1.534-2.9.019-5.767.341-6.373.715-.605.375-2.459-.022-4.119-.88-1.661-.859-3.361-1.61-3.78-1.669-2.446-.344-3.252-1.156-2.294-2.311.559-.674.776-1.466.482-1.759-.294-.294.16-.801 1.009-1.127 1.069-.41 1.543.013 1.543 1.376 0 1.083-.477 1.969-1.059 1.969s-.739.518-.347 1.151c.514.832 1.016.753 1.809-.286.603-.791 1.95-1.263 2.993-1.05 1.301.266 1.728-.05 1.36-1.009-.334-.871.176-1.451 1.354-1.539 1.039-.079 1.89.279 1.89.795s.477.938 1.059.938.802-.416.488-.924c-.314-.509.222-1.131 1.191-1.384 1.665-.435 1.665-.466.012-.576-.962-.064-1.75-.617-1.75-1.229 0-.66-1.181-.941-2.896-.689-2.244.329-2.769.092-2.33-1.05.311-.813.131-1.207-.402-.878-.532.329-1.621.192-2.42-.305-.964-.599-.107-.773 2.548-.518 2.199.211 4.562-.083 5.25-.654.88-.731 1.751-.632 2.942.335.931.754 1.378.848.994.207-.384-.64-.23-1.32.342-1.511.668-.223.571-.991-.27-2.14-1.318-1.802-5.319-1.401-4.193.421.304.492.103.895-.447.895s-1.283-.457-1.628-1.016a1.21 1.21 0 0 0-1.659-.38c-.628.389-.587-.191.104-1.483 1.302-2.431 2.286-2.86 1.427-.621-.85 2.215 1.046 1.821 3.233-.672 1.048-1.194 1.343-1.843.655-1.441-.69.404-1.25.231-1.25-.387 0-.615-.45-.84-1-.5s-1-.069-1-.91c0-.947-.57-1.308-1.5-.952-.825.317-1.5.078-1.5-.531s-.505-1.107-1.122-1.107c-.806 0-.82.366-.047 1.296 1.512 1.823 1.086 5.609-.561 4.977-1.007-.386-1.048-.835-.173-1.89.897-1.081.793-1.383-.475-1.383-.892 0-1.509-.562-1.372-1.25.138-.687-.533-1.188-1.489-1.113s-1.485-.274-1.175-.776c.311-.503 1.093-.849 1.739-.769 3.181.393 4.582-.17 4.027-1.618-.423-1.102-.935-1.235-1.848-.477-1.891 1.569-9.919 2.211-8.669.693.651-.79.534-2.198-.346-4.19-.73-1.65-1.363-2.434-1.408-1.742-.064 1-.485 1.007-2.042.034-1.937-1.209-2.227-4.01-.571-5.516.469-.427.529-.213.133.474-.473.823-.036 1.25 1.281 1.25 1.1 0 2.272.441 2.605.98.383.619 1.306.542 2.509-.209 1.448-.905 1.637-1.508.791-2.527-.761-.918-1.321-.999-1.779-.257-.367.594-1.431.788-2.363.43-1.318-.505-1.44-.959-.548-2.034.631-.761 1.768-1.383 2.525-1.383.758 0 1.378-.498 1.378-1.107s.652-.857 1.449-.551c1.02.392 1.265.076.826-1.067-.477-1.243-.205-1.462 1.163-.937 1.317.505 1.636.297 1.217-.795-.312-.813-.137-1.745.389-2.07s.956-.088.956.527.457.835 1.016.49c.559-.346.761-1.042.448-1.548-.312-.505.168-.637 1.068-.291 1.17.449 1.297.837.445 1.363q-1.188.737-.153 1.377c1.97 1.218 2.367-1.523.524-3.624-1.694-1.931-1.702-2.053-.098-1.468 1.97.719 2.445-.846.5-1.648-.767-.317-.408-.773.931-1.182 1.199-.366 1.977-1.197 1.728-1.846s.135-1.985.855-2.969c1.232-1.685 1.307-1.669 1.307.279 0 1.137-.257 2.067-.571 2.067s-.621.788-.681 1.75-.364 2.875-.675 4.25l-.565 2.5 1.961-2.361c1.078-1.298 1.96-3.294 1.96-4.435s1.013-3.189 2.25-4.551c1.237-1.361 1.728-2.176 1.09-1.811-2.738 1.569-4.084-.328-3.297-4.646 1.412-7.748 1.771-11.911.954-11.05-.446.47-1.028 2.543-1.294 4.607-.807 6.26-6.985 17.858-12.928 24.271-4.112 4.436-7.625 6.991-13.634 9.915-4.453 2.167-8.392 3.643-8.755 3.281-.362-.362-.101-3.485.581-6.939s1.225-11.281 1.207-17.391c-.026-9.29-.463-12.404-2.668-19-4.41-13.196-11.701-23.692-21.402-30.814-5.371-3.942-6.626-4.377-5.705-1.978M582.158 279c0 1.375.227 1.938.504 1.25.278-.687.278-1.812 0-2.5-.277-.687-.504-.125-.504 1.25m3.575 15.124c.679.684 1.486.991 1.793.683.308-.308-.247-.867-1.233-1.243-1.425-.542-1.54-.428-.56.56m-49.24.865c.358.579-.072.726-1.042.354-.925-.355-2.02-.041-2.486.714-1.24 2.006-.106 3.089 2.035 1.943 1.316-.704 2.093-.659 2.594.152.444.718.277.886-.439.443-1.608-.993-1.441.039.48 2.971.9 1.373 1.35 2.782 1 3.132-.349.349-.649-.002-.667-.781-.022-.996-.467-.841-1.5.524-.807 1.068-1.468 1.405-1.468.75 0-2.123-.22-2.655-2.068-5.005-1.001-1.272-1.572-2.96-1.269-3.75 1.016-2.648-.499-1.47-2.013 1.564-.823 1.65-1.081 3-.573 3 .507 0 .923-.477.923-1.059s.45-.781 1-.441c1.525.943 1.21 3.795-.353 3.195-.744-.286-2.094.346-3 1.404-1.744 2.037-2.185 3.351-.847 2.525.44-.272 1.373.423 2.074 1.545s.822 1.761.269 1.419a1.19 1.19 0 0 0-1.633.396c-.345.559-.228 1.016.261 1.016s.837 1.575.773 3.5.223 3.5.639 3.5c.415 0 .513.629.217 1.399-.295.769.021 1.743.702 2.164.859.531 1.046.265.612-.867-1.036-2.7.883-2.817 2.315-.142.985 1.84 1.039 2.778.207 3.61s-.964.512-.508-1.231c.582-2.227.435-2.187-2.69.734-3.462 3.235-3.395 5.899.12 4.783 1.3-.413 2.509.006 3.49 1.209.825 1.013 1.215 1.279.867.591-.378-.746.02-1.25.985-1.25.922 0 1.326-.473.939-1.099-.374-.605 1.357.037 3.846 1.427 2.49 1.39 4.794 2.26 5.121 1.933s.594-.117.594.465-.698 1.328-1.552 1.656-1.296.181-.984-.324c.887-1.435-1.502-2.42-2.776-1.146-.851.851-.799 1.681.206 3.29 1.172 1.877 1.105 2.337-.525 3.609-1.802 1.406-1.797 1.432.131.727 1.1-.402 2.453-.811 3.007-.908 1.95-.341 5.978-3.63 4.466-3.645-1.279-.014-1.275-.144.027-.985q1.5-.969.25-.985c-.687-.008-1.25-.717-1.25-1.574 0-.981.463-1.281 1.25-.808.946.569.985.401.158-.691-.6-.793-1.046-3.997-.989-7.12.056-3.122-.086-5.489-.316-5.258-.231.23-1.052-.107-1.826-.749s-2.434-1.213-3.69-1.268c-1.724-.075-2.168.339-1.814 1.691.348 1.334.049 1.631-1.17 1.163-.901-.346-1.577-1.14-1.502-1.765.296-2.471-.29-6.058-.787-4.816-.374.938-.997.65-2.148-.993-1.835-2.62-2.46-5.126-1.062-4.263.511.316.687.966.391 1.445-.296.478.34.804 1.414.723s1.732-.504 1.463-.94c-.27-.435.384-.792 1.452-.792 2.268 0 3.388-3.87 1.893-6.542-.689-1.23-.643-1.531.157-1.036 1.605.992 1.392-.598-.431-3.199-1.494-2.133-4.207-3.268-2.95-1.234m50.928 11.291c.046 5.153.41 7.986.912 7.09.459-.82.586-2.139.282-2.931-.304-.791-.09-1.439.475-1.439.571 0 .682-.556.25-1.25-.428-.687-.66-2.169-.515-3.293.145-1.123-.129-3.104-.609-4.401-.604-1.635-.849.277-.795 6.224M534 299.755c0 .55.675 1.56 1.5 2.245.837.694 1.5.803 1.5.245 0-.55-.675-1.56-1.5-2.245-.837-.694-1.5-.803-1.5-.245M524.5 311c.34.55.816 1 1.059 1s.441-.45.441-1-.477-1-1.059-1-.781.45-.441 1m13.5 2.059c0 .582.45.781 1 .441s1-.816 1-1.059-.45-.441-1-.441-1 .477-1 1.059m-3.255 2.191c-.257.688-.112 2.15.323 3.25.645 1.629.804 1.397.862-1.25.073-3.38-.38-4.145-1.185-2m51.819 2.457c-.542 1.425-.428 1.54.56.56.684-.679.991-1.486.683-1.793-.308-.308-.867.247-1.243 1.233m-65.084.326c-1.852 2.995-2.348 7.242-1.003 8.587 1.2 1.2 1.396 1.149 1.371-.36-.016-.968.234-3.447.555-5.51q.877-5.627-.923-2.717m21.693 1.258c-.816.984-.55 1.33 1.115 1.456 1.546.116 1.791-.08.836-.67-1.132-.7-1.129-.923.013-1.377.75-.298.856-.578.235-.621-.62-.043-1.609.502-2.199 1.212m-17.158 1.337c.031 1.72 1.729 3.595 2.349 2.592.338-.546-.056-1.549-.875-2.229s-1.482-.843-1.474-.363M540.5 327c-.34.55-.141 1 .441 1s1.059-.45 1.059-1-.198-1-.441-1-.719.45-1.059 1m3.313 1.683c.721.289 1.584.253 1.916-.079s-.258-.568-1.312-.525c-1.165.048-1.402.285-.604.604m-14.941 3.067c-1.243 1.586-1.208 1.621.378.378 1.666-1.307 2.195-2.128 1.372-2.128-.207 0-.995.788-1.75 1.75m7.941-1.067c.721.289 1.584.253 1.916-.079s-.258-.568-1.312-.525c-1.165.048-1.402.285-.604.604m-4.734 1.567c-.043.962.357 1.75.89 1.75.532 0 .681.749.33 1.664-.446 1.161-.265 1.433.599.899.681-.421 1.022-1.329.758-2.017-.317-.827.339-1.162 1.937-.986 1.329.146 2.161-.149 1.848-.655-.313-.507-1.639-.727-2.947-.49-1.308.238-2.594-.096-2.857-.742-.264-.645-.515-.385-.558.577m-12.079.812c0 1.139 2.686 1.254 3.372.146.269-.436-.379-.858-1.441-.938s-1.931.276-1.931.792m16.572 2.688c.497.413 1.241 1.2 1.651 1.75.426.571.753.249.762-.75.008-.973-.725-1.75-1.652-1.75-.916 0-1.259.337-.761.75m7.428.309c0 .582.45.781 1 .441s1-.816 1-1.059-.45-.441-1-.441-1 .477-1 1.059M719.275 338c-.083 1.1.271 2 .787 2s.938-.9.938-2-.354-2-.787-2-.855.9-.938 2m-184.668 1.582c-.873 2.274-.798 2.427 1.143 2.339.962-.043 1.213-.297.556-.565-.656-.267-.946-1.131-.643-1.921.303-.789.326-1.435.051-1.435s-.773.712-1.107 1.582m11.441-.633c-.799.506-1.811.697-2.25.426s-.798.032-.798.673c0 .643.696.899 1.552.57.89-.341 1.291-.173.941.393-.336.544-.006.989.734.989.739 0 1.344-.9 1.344-2s-.016-1.993-.035-1.985-.69.429-1.488.934m180.824 1.801c-1.243 1.586-1.208 1.621.378.378 1.666-1.307 2.195-2.128 1.372-2.128-.207 0-.995.788-1.75 1.75m-183.539 2.706c0 .801.383 1.22.85.931s.591-.944.274-1.456c-.808-1.308-1.124-1.161-1.124.525M589 343.5c0 .825.177 1.5.393 1.5s.652-.675.969-1.5.139-1.5-.393-1.5c-.533 0-.969.675-.969 1.5m-18.5 5.5c.34.55.816 1 1.059 1s.441-.45.441-1-.477-1-1.059-1-.781.45-.441 1m-114.421 2.583c.048 1.165.285 1.402.604.605.289-.722.253-1.585-.079-1.917s-.568.258-.525 1.312m99.428 1.406c-.35.566.051.734.941.393 1.732-.665 2.049-1.382.611-1.382-.518 0-1.216.445-1.552.989m13.16 3.178c-2.149 2.344-1.611 3.634.595 1.428.825-.825 1.851-1.184 2.279-.797.429.386.48.178.113-.463-.367-.64-.101-1.392.59-1.671.847-.341.767-.505-.244-.502-.825.003-2.325.905-3.333 2.005m3.146 3.516c.721.289 1.584.253 1.916-.079s-.258-.568-1.312-.525c-1.165.048-1.402.285-.604.604M562.5 361c.34.55.816 1 1.059 1s.441-.45.441-1-.477-1-1.059-1-.781.45-.441 1m15.5.167c0 .458.423.833.941.833s1.173-.375 1.456-.833c.283-.459-.14-.834-.941-.834s-1.456.375-1.456.834m-20 .892c0 .582.45.781 1 .441s1-.816 1-1.059-.45-.441-1-.441-1 .477-1 1.059m23.638.441c-.347.905-.005 1.5.862 1.5s1.209-.595.862-1.5c-.317-.825-.705-1.5-.862-1.5s-.545.675-.862 1.5m-18.609 2.461c-.809.512-1.258 1.143-.998 1.403.259.26 1.345-.166 2.412-.946 2.133-1.56.94-1.946-1.414-.457m3.178 1.079c-1.013 1.621-.963 1.96.285 1.96.88 0 1.508.902 1.508 2.167 0 2.714.809 2.007 1.403-1.228.247-1.341.482-2.607.523-2.811.041-.205.759.196 1.597.891 1.278 1.061 1.418.991.871-.435-.392-1.021-1.267-1.463-2.193-1.108-.848.326-1.818.144-2.155-.402-.345-.558-1.152-.134-1.839.966m-69.173 4.34c-1.886 6.736-.796 9.129 1.653 3.627 1.875-4.215 2.03-8.007.326-8.007-.414 0-1.305 1.971-1.979 4.38m73.466.62c-.34.55-.168 1 .382 1s1.278-.45 1.618-1 .168-1-.382-1-1.278.45-1.618 1m17.772 1.957c.161 2.147.993 1.845 1.335-.486.119-.809-.166-1.471-.633-1.471s-.783.881-.702 1.957M571.5 373c-.34.55.084 1 .941 1s1.559-.45 1.559-1-.423-1-.941-1-1.219.45-1.559 1m-12.266 1.294c.954.772 1.404 1.769 1 2.215s-.171.488.516.092c1.729-.995 1.587-1.367-1-2.621-2.019-.978-2.072-.946-.516.314M565 375.43c0 .275.9.981 2 1.57s2 .845 2 .57-.9-.981-2-1.57-2-.845-2-.57m7.603 2.403c-.283.459.12.834.897.834s1.18-.375.897-.834-.687-.833-.897-.833-.614.375-.897.833m-75.06 2.098c-.317.512-.193 1.167.274 1.456s.85-.13.85-.931c0-1.686-.316-1.833-1.124-.525m89.124 1.736c-1.017 1.016-.795 2.333.392 2.333.582 0 .805-.412.494-.915s0-1.142.691-1.421c.694-.28.772-.541.173-.585-.596-.043-1.384.221-1.75.588m-8.696 2.868c-1.704 2.053-.751 2.755 1.503 1.107 1.121-.819 1.427-1.585.791-1.978-.571-.353-1.603.039-2.294.871m-29.464.454c-.351.568.054.733.954.388.86-.331 2.346.012 3.302.761 1.571 1.232 1.606 1.195.365-.388-1.517-1.934-3.677-2.289-4.621-.761M582.5 385c-.34.55-.141 1 .441 1s1.059-.45 1.059-1-.198-1-.441-1-.719.45-1.059 1m19.156 4.545c.304.794.956 1.195 1.449.89 1.24-.766 1.126-1.132-.554-1.777q-1.45-.557-.895.887M600 392.382c0 .825.45 1.778 1 2.118s1-.057 1-.882-.45-1.778-1-2.118-1 .057-1 .882m-45 .083c0 .255 1.013 1.004 2.25 1.664 2.04 1.087 2.122 1.043.878-.465-1.278-1.549-3.128-2.258-3.128-1.199m7.5.535c.34.55 1.068 1 1.618 1s.722-.45.382-1-1.068-1-1.618-1-.722.45-.382 1m31.5 0c-1.282.828-1.246.972.25.985.962.008 1.75-.435 1.75-.985 0-1.22-.113-1.22-2 0m-34.542 4.068c-.363.588-1.177.875-1.809.639-.632-.237-2.049-.074-3.149.361-1.64.649-1.426.804 1.191.862 1.755.038 3.474-.387 3.819-.946.346-.559 1.117-.715 1.714-.346.647.401.797.206.371-.483-.884-1.431-1.296-1.448-2.137-.087M563 401c0 .55.477 1 1.059 1s.781-.45.441-1-.816-1-1.059-1-.441.45-.441 1m147.109 2.51c-5.72 4.547-4.501 4.539 1.459-.01 2.522-1.925 4.213-3.496 3.759-3.49s-2.803 1.58-5.218 3.5m-146.602 3.501c.336.544.044.989-.648.989-.924 0-.963.296-.146 1.113 1.136 1.136 3.287.44 3.287-1.065 0-.459-.698-1.102-1.552-1.43-.89-.341-1.291-.173-.941.393m3.651 2.989c0 1.375.227 1.938.504 1.25.278-.687.278-1.812 0-2.5-.277-.687-.504-.125-.504 1.25M704 409.5c-.718.865-.815 1.5-.229 1.5.558 0 1.274-.675 1.591-1.5s.419-1.5.229-1.5-.906.675-1.591 1.5m-146.308 3.432c.295 1.125.903 1.818 1.353 1.54.449-.277 1.061-.109 1.36.374.298.483-.362.828-1.469.766-1.106-.062-2.437-.787-2.958-1.612-.566-.895-.954-1.02-.963-.309-.008.655.442 1.474 1.001 1.819.559.346.832.935.605 1.309-.226.375.302 1.341 1.174 2.148 1.406 1.301 1.511 1.273.927-.25-.502-1.307-.129-1.713 1.559-1.702 1.8.013 1.935.199.719.985-.825.533-1.107.976-.628.985.48.008.313.69-.372 1.515-.885 1.067-.915 1.5-.101 1.5 2.159 0 3.54-4.74 2.224-7.629-.659-1.446-1.477-2.35-1.818-2.009-.342.341-1.189.149-1.884-.428-.967-.802-1.138-.567-.729.998m20.911-1.099c-.283.459.12.834.897.834s1.18-.375.897-.834-.687-.833-.897-.833-.614.375-.897.833m7.397 1.438c0 .833.675 1.774 1.5 2.091.825.316 1.5.194 1.5-.271s-.675-1.406-1.5-2.091c-1.221-1.013-1.5-.963-1.5.271m-11.015 2.757c-.597 1.115-1.485 1.781-1.974 1.479s-1.352.248-1.919 1.222c-.956 1.642-1.035 1.625-1.077-.229-.038-1.66-.21-1.745-1.015-.5-2.77 4.286.684 3.976 5.57-.5 2.101-1.925 3.299-3.5 2.661-3.5-.639 0-1.649.913-2.246 2.028M698 418c-1.175 1.65-1.869 3-1.542 3s-.139 1.415-1.033 3.145c-1.072 2.073-1.744 6.423-1.969 12.75l-.342 9.605.939-7.479c1.021-8.14 3.317-16.902 5.569-21.258 1.883-3.641 1.053-3.52-1.622.237m-79.5-1c-.34.55-.141 1 .441 1s1.059-.45 1.059-1-.198-1-.441-1-.719.45-1.059 1m-30 1c.34.55.816 1 1.059 1s.441-.45.441-1-.477-1-1.059-1-.781.45-.441 1m102.105.588c-.846 2.205-.842 2.215 1.471 3.453 1.869 1 1.972.917 1.035-.834-.572-1.069-.802-2.183-.509-2.475.292-.293.098-.799-.431-1.126s-1.234.115-1.566.982m33.511 2.51c-1.588 4.554-1.38 13.649.452 19.819.862 2.904 1.755 5.094 1.983 4.865.228-.228-.038-1.96-.591-3.848-1.467-5.009-1.986-16.357-.918-20.081 1.22-4.254.498-4.842-.926-.755M562 422.969c0 .532.675.709 1.5.393.825-.317 1.5-.753 1.5-.969s-.675-.393-1.5-.393-1.5.436-1.5.969m58 .031c0 .55.45 1 1 1s1-.45 1-1-.45-1-1-1-1 .45-1 1m-56 1.642c0 .537.7 1.849 1.555 2.917 1.467 1.83 1.487 1.798.365-.559-1.458-3.061-1.92-3.628-1.92-2.358m9.004.414c.827.794 2.402 2.119 3.5 2.944 1.805 1.356 1.877 1.348.755-.092-.683-.876-.946-1.888-.584-2.25s.17-.658-.427-.658c-.596 0-1.909-.312-2.916-.694-1.621-.614-1.658-.527-.328.75m5.809-.373c.721.289 1.584.253 1.916-.079s-.258-.568-1.312-.525c-1.165.048-1.402.285-.604.604M571 430.059c0 .582.45.781 1 .441s1-.816 1-1.059-.45-.441-1-.441-1 .477-1 1.059m20.158.941c0 1.375.227 1.938.504 1.25.278-.687.278-1.812 0-2.5-.277-.687-.504-.125-.504 1.25m100 1c0 1.375.227 1.938.504 1.25.278-.687.278-1.812 0-2.5-.277-.687-.504-.125-.504 1.25M574 431.893c0 .491.739 1.176 1.641 1.523 1.373.527 1.435.38.378-.893-1.44-1.735-2.019-1.916-2.019-.63m6 .107c-.901.582-1.025.975-.309.985.655.008 1.469-.435 1.809-.985.767-1.242.421-1.242-1.5 0m2.625 1.798c-.271.439-.093 1.445.397 2.237.671 1.086.848.889.721-.798-.183-2.427-.364-2.66-1.118-1.439m4.454 1.785c.048 1.165.285 1.402.604.605.289-.722.253-1.585-.079-1.917s-.568.258-.525 1.312m-6.936 1.307c-.834.529-.971 1.098-.355 1.479.552.341 1.26-.053 1.576-.875.662-1.727.6-1.757-1.221-.604m2.774 1.36c-.532 1.594-.398 4.547.19 4.184.421-.26.699-1.365.617-2.454-.129-1.701-.53-2.562-.807-1.73m3.232 3.849c-.17 2.886.123 3.977.992 3.687.679-.226 1.433-1.008 1.676-1.738.269-.806-.011-1.046-.715-.611-.819.506-.999-.183-.615-2.361.298-1.692.173-3.076-.277-3.076-.451 0-.928 1.844-1.061 4.099m-10.829-.73c.599 1.58.319 1.795-1.806 1.389-3.022-.578-3.009-.635-.514 2.242 1.1 1.268 2 1.761 2 1.094s.403-.963.895-.659c1.729 1.069 2.08-2.602.408-4.259-1.583-1.569-1.646-1.557-.983.193m3.287 4.213c-.952 2.48-.731 2.685 1.012.942.891-.891 1.903-1.311 2.25-.935.347.377.066.887-.625 1.133-.691.247-1.002.86-.691 1.363s-.122.915-.963.915q-1.527 0-.924 1.75c.518 1.502.393 1.481-.879-.151-1.181-1.516-1.65-1.629-2.311-.56-.495.801-.377 1.494.291 1.717.616.205.853 1.071.525 1.925-.509 1.326-.265 1.375 1.677.336 1.482-.793 2.036-.834 1.593-.117-1.517 2.454 2.439.902 4.206-1.65 2.529-3.652 3.796-6.257 1.946-4-2.015 2.459-3.038 2.176-2.33-.646.417-1.66.118-2.581-.973-3-2.417-.927-3.145-.74-3.804.978m-10.881 1.146c.314.818 1.349 1.224 2.412.946 2.362-.618 2.344-.108-.088 2.503-1.472 1.58-2.682 1.947-4.935 1.496-2.508-.502-2.962-.292-2.841 1.314.084 1.114.578 1.604 1.185 1.174.573-.405 2.278-.864 3.791-1.02 1.992-.206 2.75.166 2.75 1.346 0 .897.39 1.39.866 1.096s.649-1.671.383-3.059c-.276-1.445-.018-2.524.603-2.524.597 0 .826.675.51 1.5-.801 2.087.362 1.884 1.512-.264 1.26-2.354-.932-5.309-4.204-5.668-1.819-.2-2.345.115-1.944 1.16M728 449c.589 1.1 1.295 2 1.57 2s.019-.9-.57-2-1.295-2-1.57-2-.019.9.57 2m-163 1c0 .55.477 1 1.059 1s.781-.45.441-1-.816-1-1.059-1-.441.45-.441 1m128.811 2.509c.568 4.862 1.813 5.236 1.352.407-.205-2.154-.685-3.916-1.067-3.916s-.51 1.579-.285 3.509M625 454.441c0 .793.408 1.693.907 2.001.498.309.671-.34.383-1.441-.611-2.335-1.29-2.63-1.29-.56m13.5-.441c-.34.55-.141 1 .441 1s1.059-.45 1.059-1-.198-1-.441-1-.719.45-1.059 1m96.5 3.051c3.358 2.973 10.909 7.434 11.457 6.769.145-.176-3.161-2.468-7.347-5.094-5.877-3.687-6.813-4.068-4.11-1.675m-169.267-.927c.679.684 1.486.991 1.793.683.308-.308-.247-.867-1.233-1.243-1.425-.542-1.54-.428-.56.56m81.6.397c0 1.02.47 1.12 1.834.39 1.008-.54 1.833-1.095 1.833-1.233s-.825-.315-1.833-.39-1.834.478-1.834 1.233m150.108 1.034c-1.864 1.494-1.852 1.512.309.465 1.237-.6 2.25-1.3 2.25-1.555 0-.765-.519-.544-2.559 1.09M696 460.5c0 .825.436 1.5.969 1.5s.709-.675.393-1.5c-.317-.825-.753-1.5-.969-1.5s-.393.675-.393 1.5m-134.958 2.474c-.769.476-5.173.855-9.786.844-9.588-.024-11.595.709-4.752 1.735 5.428.814 14.382-.039 15.853-1.51 1.37-1.37.422-2.142-1.315-1.069m75.522 6.319c.376.986.935 1.541 1.243 1.233s.001-1.114-.683-1.793c-.988-.98-1.102-.865-.56.56m70.021 8.436c1.603 2.325 3.252 4.238 3.665 4.25 1.621.046.586-1.74-2.915-5.033l-3.664-3.446zm-75.772-.046c.721.289 1.584.253 1.916-.079s-.258-.568-1.312-.525c-1.165.048-1.402.285-.604.604m-.726 2.713c-.942 1.134-.919 1.402.107 1.252 1.382-.203 2.273-1.515 1.532-2.255-.243-.243-.98.208-1.639 1.003m4.271 1.374c.366.593-.127 1.285-1.096 1.538-1.575.411-1.583.472-.071.576 2.12.145 3.235-1.503 1.671-2.469-.702-.434-.904-.292-.504.355M715 486.5c.685.825 1.695 1.5 2.245 1.5.558 0 .449-.663-.245-1.5-.685-.825-1.695-1.5-2.245-1.5-.558 0-.449.663.245 1.5m-74 3c0 .917.484 1.505 1.075 1.308s1.075-.786 1.075-1.308-.484-1.111-1.075-1.308-1.075.391-1.075 1.308m80.306.908c1.543 1.426 3.305 2.592 3.916 2.592 1.294 0 1.335.037-3.222-2.916l-3.5-2.267zm-76.69 1.151c-.799 2.082-.456 2.578 1.11 1.61.676-.418.828-1.273.36-2.029-.627-1.015-.956-.921-1.47.419m-49.988 1.922c-1.809 1.37-1.811 1.479-.056 3.218 1.65 1.636 1.757 1.644 1.165.08-.375-.989-.002-2.371.877-3.25 1.915-1.915.524-1.948-1.986-.048m-6.961 2.186c-1.003 1.002-.802 2.534.248 1.886.503-.311 1.116 0 1.363.691s.745.983 1.109.649c.789-.725-.291-3.893-1.327-3.893-.4 0-1.027.3-1.393.667M619 496c-.901.582-1.025.975-.309.985.655.008 1.469-.435 1.809-.985.767-1.242.421-1.242-1.5 0m22.5 1c.34.55.816 1 1.059 1s.441-.45.441-1-.477-1-1.059-1-.781.45-.441 1m-59.386 1.363c-.916 1.103-.653 1.272 1.377.883 1.38-.263 2.509-.877 2.509-1.363 0-1.366-2.623-1.043-3.886.48m66.886-.304c0 .582.45.781 1 .441s1-.816 1-1.059-.45-.441-1-.441-1 .477-1 1.059m-40 1.334c0 .216.698.661 1.552.989.89.341 1.291.173.941-.393-.587-.951-2.493-1.406-2.493-.596m14.543 1.538c-.317.512-.049 1.256.595 1.654.698.432.904.292.51-.345-.363-.588-.095-1.297.596-1.576.899-.362.917-.529.065-.585-.655-.043-1.45.34-1.766.852m19.132-.273c-.362.362-.145 1.276.482 2.031.881 1.062.708 1.7-.759 2.81-1.044.791-1.362 1.452-.707 1.469s1.469-.418 1.809-.968 1.097-1 1.681-1c.671 0 .604.554-.181 1.5-.718.865-.815 1.5-.229 1.5 1.959 0 2.075-2.83.185-4.54-1.05-.95-1.668-2.117-1.373-2.594.629-1.019.039-1.154-.908-.208m-14.072 1.175c-.283.459.12.834.897.834s1.18-.375.897-.834-.687-.833-.897-.833-.614.375-.897.833m117.897-.15c1.1.302 2.227.906 2.504 1.343.932 1.472 28.996 1.688 28.996.224 0-.413-5.288-.75-11.75-.75s-14-.307-16.75-.682-4.1-.436-3-.135M605.638 503.5c-.405 1.058.079 1.495 1.643 1.485 1.634-.012 1.86-.243.856-.879-1.151-.729-1.151-.948 0-1.406.997-.397.922-.563-.28-.621-.904-.043-1.902.596-2.219 1.421m174.175-.817c.721.289 1.584.253 1.916-.079s-.258-.568-1.312-.525c-1.165.048-1.402.285-.604.604M601.638 504.5c.317.825.964 1.5 1.438 1.5.473 0 .602-.675.286-1.5-.317-.825-.964-1.5-1.438-1.5-.473 0-.602.675-.286 1.5m24.862.5c.34.55 1.041 1 1.559 1s.941-.45.941-1-.702-1-1.559-1-1.281.45-.941 1m24-.235c-1.77 1.3-1.485 3.006.593 3.549 1.628.426 1.799.26.878-.849-.629-.758-.853-1.847-.498-2.421q1.13-1.825-.973-.279m-29.973 1.191c-.325.526-1.252.703-2.059.393s-1.468-.338-1.468-.063c0 1.285 2.779 1.349 4.483.103 1.045-.764 1.39-1.389.767-1.389s-1.398.43-1.723.956m-14.405.948c-.758.48-1.069 1.373-.691 1.984.855 1.384 3.569 1.469 3.569.112 0-.55-.477-1-1.059-1s-.781-.45-.441-1c.752-1.217.427-1.24-1.378-.096m22.143.694c.387.387-.077 1.345-1.031 2.127-.953.783-1.222 1.17-.597.86s1.721.141 2.435 1.002c1.073 1.292 1.049 1.724-.136 2.474-.901.57-.993.914-.245.924 1.871.024 2.498-1.762 1.363-3.884-.751-1.404-.709-2.049.153-2.337.687-.229.379-.709-.727-1.133-1.056-.405-1.602-.42-1.215-.033M599.5 509c-1.63.701-1.688.872-.309.93.93.038 1.969-.38 2.309-.93.711-1.15.676-1.15-2 0m21.703-.146c-1.042.66-1.004 1.067.193 2.06 1.244 1.032 1.465.893 1.335-.838-.086-1.142-.173-2.069-.194-2.061-.02.009-.621.386-1.334.839m-24.55 3.013c-1.796.707-1.796.766 0 2.147 1.016.781 1.513 1.026 1.106.545-.408-.481-.24-1.479.372-2.217 1.236-1.49 1.162-1.513-1.478-.475M654 513c-.825.533-1.05.969-.5.969s1.675-.436 2.5-.969 1.05-.969.5-.969-1.675.436-2.5.969m-19 1c0 .55.477 1 1.059 1s.781-.45.441-1-.816-1-1.059-1-.441.45-.441 1m9.733.124c.679.684 1.486.991 1.793.683.308-.308-.247-.867-1.233-1.243-1.425-.542-1.54-.428-.56.56m-25.733.935c0 .582.45.781 1 .441s1-.816 1-1.059-.45-.441-1-.441-1 .477-1 1.059m19.441.37c-1.894 1.393-1.895 1.446-.051 2.16 1.827.708 1.829.777.059 2.072-1.007.736-1.385 1.339-.84 1.339 1.754 0 3.252-2.195 2.643-3.872-.474-1.305-.149-1.239 1.639.332 1.915 1.683 2.377 1.754 3.264.5.853-1.205.937-1.159.483.258-.303.945-.082 2.007.49 2.361.634.392.91-.249.706-1.64-.229-1.568-1.067-2.335-2.676-2.45-1.288-.093-2.664-.69-3.059-1.329-.529-.856-1.226-.785-2.658.269m23.066-.44c-.35.566.051.734.941.393 1.732-.665 2.049-1.382.611-1.382-.518 0-1.216.445-1.552.989M608 517c-.901.582-1.025.975-.309.985.655.008 1.469-.435 1.809-.985.767-1.242.421-1.242-1.5 0m16.5.046c-1.763.717-1.68.822.7.884 1.485.038 3.139.854 3.675 1.812s1.232 1.484 1.546 1.17-.44-1.495-1.675-2.625c-1.611-1.474-2.812-1.825-4.246-1.241m9.5 2.454c0 .825-.45 1.5-1 1.5s-1 .505-1 1.122c0 .826.355.828 1.342.009.738-.612 1.608-.848 1.932-.523.325.324.343-.355.042-1.509-.64-2.446-1.316-2.754-1.316-.599m-19 1.5c0 .55.477 1 1.059 1s.781-.45.441-1-.816-1-1.059-1-.441.45-.441 1m9.603.833c-.283.459.12.834.897.834s1.18-.375.897-.834-.687-.833-.897-.833-.614.375-.897.833m-18.033 1.054c-.301.487.087 1.413.862 2.057 1.153.956 1.312.794.873-.887-.594-2.271-.919-2.49-1.735-1.17m21.808.88c-.829 1.327-.778 2.07.206 2.99.746.696 1.556.826 1.879.302.313-.506.132-1.191-.403-1.522s-.719-1.262-.409-2.069c.772-2.012.066-1.846-1.273.299M619 524c0 .55.477 1 1.059 1s.781-.45.441-1-.816-1-1.059-1-.441.45-.441 1m3.603.833c-.283.459.14.834.941.834s1.456-.375 1.456-.834-.423-.833-.941-.833-1.173.375-1.456.833m32.051.626c-.325.848-1.28 1.541-2.123 1.541-2.958 0-1.493 1.917 1.96 2.564 1.92.361 3.247 1.051 2.948 1.534s.193.597 1.093.251c.966-.37 1.216-.887.61-1.261-.564-.349-1.671-1.879-2.461-3.401-1.105-2.131-1.572-2.413-2.027-1.228m2.346-.518c0 .518.445 1.216.989 1.552.566.35.734-.051.393-.941-.665-1.732-1.382-2.049-1.382-.611M623.5 528c.34.55.816 1 1.059 1s.441-.45.441-1-.477-1-1.059-1-.781.45-.441 1m6.5 1.912c-1.375 1.529-3.062 2.577-3.75 2.327-2.174-.788-1.35 1.637.979 2.884 1.227.656 2.833 1.796 3.57 2.533 1.839 1.839 4.73.166 4.88-2.824.064-1.283-.091-1.795-.346-1.138-.254.656-1.221.91-2.148.563-1.439-.539-1.494-.396-.379.975 1.074 1.323 1.074 1.572 0 1.41-3.182-.482-3.75-1.698-1.733-3.715 1.1-1.1 1.702-2.482 1.338-3.071-.442-.715.11-.825 1.667-.331 2.154.683 2.206.616.697-.893-2.009-2.009-1.758-2.076-4.775 1.28m30.458-1.089c.523 1.681.214 2.71-1.117 3.719-1.013.767-1.462 1.409-.999 1.426.464.018 1.913-.81 3.221-1.839l2.379-1.871-2.104-1.879c-2.08-1.858-2.096-1.852-1.38.444m-45.855 1.01c-.283.459.14.834.941.834s1.456-.375 1.456-.834-.423-.833-.941-.833-1.173.375-1.456.833M644 530.882c0 .55.45 1.278 1 1.618s1 .168 1-.382-.45-1.278-1-1.618-1-.168-1 .382M662 533c0 .55.45 1 1 1s1-.45 1-1-.45-1-1-1-1 .45-1 1m4.36-.227c.368.596-.237 1.371-1.345 1.722-2.014.64-2.873 3.505-1.05 3.505.53 0 1.421.853 1.979 1.895.747 1.397.639 2.206-.413 3.079-1.192.989-1.35.718-.958-1.645.354-2.129.221-2.458-.536-1.329-1.331 1.983-1.313 5 .029 5 .586 0 1.942-.469 3.012-1.042 1.564-.837 1.741-1.427.9-3-.921-1.719-.719-1.958 1.653-1.958 3.51 0 2.767-.672-1.475-1.334-4.251-.663-5.188-1.583-2.362-2.322 2.419-.633 2.847-1.83 1.051-2.939-.687-.426-.884-.277-.485.368m-21.195 1.104c-.997.632-.744 1.007 1 1.484 1.909.522 2.065.812.858 1.588-1.007.648-1.987.489-3.079-.5-2.037-1.843-3.037-1.854-2.335-.026 1.389 3.621 7.654 2.299 6.684-1.41-.577-2.209-1.123-2.407-3.128-1.136M654 535c0 .55.563 1.007 1.25 1.015q1.25.016-.25.985c-1.282.828-1.246.972.25.985 1.942.017 2.014-.134 1.143-2.403-.669-1.745-2.393-2.164-2.393-.582m-39 2c0 .55.477 1 1.059 1s.781-.45.441-1-.816-1-1.059-1-.441.45-.441 1m7.262.833c.076 1.009.699 1.834 1.384 1.834.898 0 .972-.512.265-1.834-.54-1.008-1.163-1.833-1.384-1.833-.222 0-.341.825-.265 1.833m5.137-.083c.395.688.21 1.25-.411 1.25-.677 0-.528.603.369 1.5.825.825 2.095 1.486 2.822 1.468.951-.023.873-.373-.278-1.25-.88-.67-1.63-1.593-1.667-2.051s-.402-1.134-.811-1.5-.42-.104-.024.583m11.601.142c0 .674-.45.948-1 .608s-1-.194-1 .324c0 .519.852 1.166 1.894 1.438 1.215.318 1.822.011 1.695-.854-.265-1.806-1.589-3.068-1.589-1.516m8.583 1.858c-.412.413-1.237.75-1.833.75s-1.239.466-1.429 1.036c-.189.569.528 1.035 1.594 1.035s1.739-.322 1.495-.716c-.822-1.331 1.666-2.037 3.07-.872 1.05.872 1.92.873 3.542.005 1.182-.632 1.897-1.403 1.588-1.712s-1.15-.073-1.869.524c-.833.691-1.841.748-2.775.158-1.796-1.136-2.416-1.174-3.383-.208m25.75.794c0 .801.375 1.456.834 1.456s.833-.423.833-.941-.375-1.173-.833-1.456c-.459-.283-.834.14-.834.941m-3.52.139c.721.289 1.584.253 1.916-.079s-.258-.568-1.312-.525c-1.165.048-1.402.285-.604.604M660 543.032c-1.333.86-1.333 1.076 0 1.936.967.624 1.618.624 1.833 0 .661-1.919-.295-2.928-1.833-1.936m11.733 1.092c.679.684 1.486.991 1.793.683.308-.308-.247-.867-1.233-1.243-1.425-.542-1.54-.428-.56.56m-25.733.269c0 .216.675.652 1.5.969s1.5.139 1.5-.393c0-.533-.675-.969-1.5-.969s-1.5.177-1.5.393M637.5 546c.34.55.816 1 1.059 1s.441-.45.441-1-.477-1-1.059-1-.781.45-.441 1m15.103-.167c-.283.459.14.834.941.834s1.456-.375 1.456-.834-.423-.833-.941-.833-1.173.375-1.456.833M633 546.81c0 1.836 3.749 3.42 4.6 1.943.396-.689.348-.915-.109-.501s-1.653.007-2.66-.905c-1.031-.933-1.831-1.168-1.831-.537m31.543.121c-.317.512-.193 1.167.274 1.456s.85-.13.85-.931c0-1.686-.316-1.833-1.124-.525m14.707.1c-1.237.498-2.25 1.102-2.25 1.343 0 .744 3.998-.562 4.575-1.495.636-1.029.609-1.027-2.325.152m-30.219.469c0 .55.436 1.675.969 2.5s.969 1.05.969.5-.436-1.675-.969-2.5-.969-1.05-.969-.5m24.302 1c0 .72.6 1.079 1.334.798.733-.282 1.333-.641 1.333-.798s-.6-.516-1.333-.798c-.734-.281-1.334.078-1.334.798m-32.774 1.032c-1.068.807-1.46 1.468-.873 1.468.588 0 1.629-.675 2.314-1.5 1.557-1.876 1.067-1.866-1.441.032M657.5 550c.34.55.816 1 1.059 1s.441-.45.441-1-.477-1-1.059-1-.781.45-.441 1m-3.687 1.683c.721.289 1.584.253 1.916-.079s-.258-.568-1.312-.525c-1.165.048-1.402.285-.604.604m20.368 3.824c-1.192 1.371-2.058 2.551-1.924 2.622s1.467.204 2.963.296c2.496.153 2.594.027 1.189-1.525-1.214-1.342-1.259-1.789-.22-2.159.721-.257 1.052-.751.735-1.097s-1.551.492-2.743 1.863M590 560c0 .55.477 1 1.059 1s.781-.45.441-1-.816-1-1.059-1-.441.45-.441 1m1 3.059c0 .582.45.781 1 .441s1-.816 1-1.059-.45-.441-1-.441-1 .477-1 1.059m124.184 2.442c.377.386 2.177.87 4 1.077 1.824.207 9.184 1.061 16.356 1.899 14.685 1.715 17.294 1.789 12.96.367-6.517-2.138-34.921-4.988-33.316-3.343m41.629 5.182c.721.289 1.584.253 1.916-.079s-.258-.568-1.312-.525c-1.165.048-1.402.285-.604.604M802 578.986c.825.541 2.587.99 3.917.999 3.209.02 2.396-.549-1.917-1.34-2.462-.452-3.055-.351-2 .341m39.813 9.697c.721.289 1.584.253 1.916-.079s-.258-.568-1.312-.525c-1.165.048-1.402.285-.604.604M638.5 618.657c-43.16 2.562-60.859 4.35-88.5 8.936-60.542 10.046-113.455 27.33-166.5 54.387-66.973 34.162-126.63 82.015-172.422 138.306C196.121 838.673 190 847.201 190 849.654c0 2.385 1.098 3.971 13.394 19.346 16.296 20.376 26.352 31.499 45.239 50.041 42.595 41.819 85.416 72.485 137.867 98.737 36.53 18.282 65.134 29.186 106.5 40.597 33.953 9.365 59.544 14.07 101 18.568 16.42 1.782 26.262 2.302 65.5 3.464 27.554.815 76.587-3.793 117-10.995 34.093-6.076 93.626-24.328 122-37.403 3.85-1.774 9.16-4.079 11.799-5.122 6.951-2.747 12.978-5.944 12.364-6.558-.293-.292-2.249.39-4.347 1.516-5.867 3.146-16.568 7.396-18.971 7.532-1.184.068-1.975.413-1.755.768.61.987-2.393 1.868-4.116 1.207-1.255-.482-1.299-.864-.25-2.161 1.038-1.281 1.035-1.43-.018-.797-.723.435-2.007.189-2.911-.558-1.432-1.182-1.56-1.033-1.117 1.298.467 2.46.319 2.582-2.238 1.849-1.659-.476-3.155-.368-3.796.273-.746.746-1.516.68-2.602-.221-.848-.704-1.542-.834-1.542-.289 0 .551-1.445.778-3.25.51-1.788-.265-4.038-.527-5-.583-2.036-.118-2.304-1.243-.5-2.101.688-.327.237-.406-1-.177s-2.25.22-2.25-.021c0-1.079 4.601-2.063 5.661-1.21.719.578 1.381.577 1.739-.002.318-.514-.35-1.177-1.483-1.474-1.986-.519-2-.641-.37-3.363l1.69-2.825-1.948 2.349c-1.785 2.153-2.081 2.216-3.547.75-1.453-1.453-1.743-1.455-3.169-.03-1.184 1.185-1.316 2.043-.536 3.5 1.38 2.579-.21 2.485-1.829-.108-.7-1.121-1.709-1.77-2.241-1.441s-.967.121-.967-.461 1.013-1.111 2.25-1.175c1.712-.088 1.829-.226.488-.576-1.028-.268-1.469-.949-1.058-1.634.387-.646-.068-.547-1.012.219-.944.765-2.03 1.078-2.413.695s-.035-1.122.774-1.642c1.295-.833 1.295-1.059 0-1.892-.809-.52-1.113-1.303-.675-1.741s1.211-.054 1.719.852c.572 1.022 1.683 1.45 2.925 1.125 2.162-.565 2.605-1.799 1.002-2.79-.55-.34-1-.109-1 .512 0 .656-.656.474-1.564-.433-.86-.86-1.24-2.087-.845-2.726.46-.745.28-.891-.503-.407-.712.44-1.841-.017-2.71-1.096-1.39-1.728-1.416-1.701-.398.4.896 1.848.806 2.25-.504 2.25-.877 0-1.316-.45-.976-1s.216-1-.274-1c-.491 0-.893-.675-.893-1.5s.402-1.5.893-1.5c.49 0 .614-.45.274-1s-.189-1 .335-1 .889-1.082.809-2.404-.53-2.166-1.001-1.875c-.472.291-.532-.495-.135-1.747.558-1.757.391-2.149-.733-1.718-.801.308-2.085.171-2.853-.304-1.068-.66-.929-.852.591-.815 1.093.026 4.462-.173 7.487-.442 3.025-.27 6.342-.041 7.371.507 1.397.745 1.681.691 1.122-.214-.569-.92.481-1.042 4.379-.506 2.991.412 5.128.319 5.128-.221 0-.899-.672-1.097-5.094-1.499-2.084-.19-2.083-.2.141-2.001 1.23-.996 2.001-2.046 1.714-2.334-.288-.287-1.264.219-2.169 1.124-.906.906-3.547 1.9-5.869 2.21-3.85.513-4.102.416-2.851-1.099.755-.914 1.936-1.662 2.623-1.662 1.661 0 10.783-4.055 10.272-4.567-.22-.22-3.97.988-8.334 2.683-12.319 4.787-35.771 12.862-37.386 12.874-.899.006-.114-1.419 2.06-3.74 6.074-6.483 15.043-19.25 13.524-19.25-1.945 0-2.917-2.95-1.526-4.627.887-1.068.78-1.373-.483-1.373-1.192 0-1.622.943-1.622 3.559 0 1.957.419 3.3.931 2.984a1.086 1.086 0 0 1 1.494.336c.568.919-2.22 2.596-3.749 2.255-.454-.101-.492.354-.086 1.011.503.815.209.992-.926.556-.915-.351-1.664-.24-1.664.247s.563 1.112 1.25 1.39c.979.395.972.521-.031.583-.705.043-1.541-.596-1.857-1.421-.7-1.824-3.48-1.955-5.284-.25-1.093 1.033-1.115.846-.125-1.076 1.106-2.146 1.046-2.244-.772-1.271-1.489.797-2.263.704-3.162-.38-.655-.79-.927-1.863-.604-2.386.332-.537-.29-.721-1.429-.423-1.11.29-2.259.918-2.554 1.395-.295.478.26.563 1.233.189 1.563-.6 1.6-.497.315.878-1.316 1.409-1.567 1.404-2.632-.053-.801-1.095-.844-1.817-.135-2.255.574-.354.721-1.167.326-1.805-.535-.866-1.123-.831-2.315.138-1.365 1.109-1.504 1.048-.955-.419.354-.945.213-1.984-.313-2.309s-.992.223-1.035 1.218c-.046 1.06-.289 1.289-.585.553-.279-.691-.918-1.002-1.421-.691s-.915.088-.915-.494.436-1.059.969-1.059.681-.749.33-1.664c-.401-1.044-.242-1.419.426-1.006.586.362 1.323-.014 1.639-.836.723-1.884-.743-1.947-2.278-.097-1.586 1.91-5.086.828-5.086-1.573 0-1.068-.416-1.685-.924-1.371-.509.314-1.071-.097-1.25-.914-.225-1.026-.773-1.207-1.769-.584-1.16.724-1.217 1.398-.294 3.425 1.084 2.378 1.023 2.468-1.056 1.555-1.214-.532-2.995-1.238-3.957-1.568s-1.75-.984-1.75-1.452c0-.469.736-.57 1.636-.224 1.135.435 1.48.195 1.125-.782-.281-.775-1.039-1.289-1.683-1.143s-1.098-.304-1.007-1 .098-2.391.014-3.766l-.152-2.5-2.076 2.5c-30.776 37.048-70.567 59.871-115.357 66.164-11.54 1.622-37.408 1.626-49 .009-30.46-4.249-58.115-15.535-82.269-33.576-14.494-10.825-33.285-30.79-43.577-46.302-14.367-21.653-24.142-46.424-28.132-71.295-7.178-44.745 3.144-89.694 29.853-130 13.721-20.706 42.918-46.575 65.27-57.829 13.783-6.94 33.036-13.922 44.355-16.086 3.025-.578 7.975-1.548 11-2.156s12.25-1.351 20.5-1.652c35.956-1.311 67.244 6.665 98.886 25.209 4.428 2.595 6.771 2.342 2.575-.278-1.121-.7-1.773-1.704-1.448-2.229.339-.548-.133-.678-1.106-.305-1.046.401-2.181-.012-2.961-1.078-.695-.951-1.544-1.669-1.886-1.595-1.295.28-10.459-4.356-10.019-5.068.254-.411-.388-.524-1.427-.253-1.038.272-2.191.005-2.56-.593s-1.508-1.087-2.53-1.087-2.007-.357-2.191-.794c-.183-.436-3.455-1.926-7.27-3.311s-7.136-3.115-7.38-3.845c-.264-.792.014-1.047.687-.63.622.384 1.13.221 1.13-.361s-.45-1.059-1-1.059-1-.424-1-.943c0-1.356 3.968-.396 6.013 1.455 1.584 1.433 1.795 1.43 2.356-.032.339-.884.979-1.383 1.422-1.109.442.273 1.458.034 2.257-.531 1.184-.839 1.129-.925-.298-.466-1.128.363-1.75.041-1.75-.905 0-.808-.436-1.469-.969-1.469s-.709.675-.393 1.5c.37.963-.02 1.5-1.09 1.5-.926 0-1.373-.474-1.006-1.067.364-.589-.292-1.316-1.462-1.622-1.434-.375-1.82-.921-1.189-1.683 1.206-1.456-3.998-1.918-7.332-.651-2.053.781-2.459.557-3.016-1.66-.563-2.244-.792-2.365-1.843-.971-1.469 1.949-7.978 2.498-9.974.842-1.148-.953-2.059-.897-4.303.268-1.806.937-3.073 1.111-3.465.476-.34-.55-1.311-.734-2.159-.408-1.909.732-2.845-1.461-2.222-5.212.256-1.547.119-2.36-.305-1.807-.425.553-2.347 1.067-4.272 1.143s-2.937-.076-2.25-.338c1.527-.582 1.661-2.31.179-2.31-.59 0-1.819-.747-2.733-1.661-1.298-1.298-1.337-1.546-.178-1.135.815.289 2.27.121 3.232-.374 1.078-.555 1.75-.531 1.75.061 0 .53-.562 1.162-1.25 1.407-.687.244.01.284 1.55.088 1.661-.211 2.552.045 2.191.629-.335.542.162.985 1.105.985 1.566 0 1.552-.179-.164-2.075-1.866-2.062-1.859-2.071 1.095-1.419 2.256.497 2.611.399 1.473-.41-1.018-.723-1.098-1.07-.25-1.081.688-.008 1.25-.492 1.25-1.074s-.453-.779-1.008-.436c-.576.356-.502-.487.174-1.97.854-1.874 1.405-2.238 1.992-1.313.446.703.811.828.811.278 0-2.006-1.668-3.553-3.198-2.966-2.013.773-3.361-1.347-1.825-2.871.894-.887 1.014-.747.506.587-.827 2.174.547 2.252 3.107.176 1.067-.866 1.379-1.289.691-.941-.687.348-1.25.121-1.25-.505 0-.755 1.053-.908 3.125-.453 2.173.478 2.917.35 2.441-.42-.384-.622-.026-1.107.818-1.107.963 0 1.363.717 1.116 2-.212 1.1.151 2.007.807 2.015.731.01.623.376-.278.946-.809.512-1.176 1.226-.815 1.587s1.617-.017 2.791-.839c1.544-1.082 1.77-1.642.815-2.023-1.076-.431-1.078-.543-.011-.607.72-.043 1.031-.529.691-1.079s-.168-1 .382-1 1.278.45 1.618 1 .156 1-.41 1c-.565 0-.768.675-.452 1.5.317.825.078 1.5-.531 1.5s-1.107.477-1.107 1.059.563.744 1.25.359.485.113-.45 1.105c-1.486 1.579-1.926 1.628-3.5.391-1.657-1.302-1.687-1.27-.37.406.81 1.03 2.22 1.613 3.25 1.343 1.001-.262 1.82.018 1.82.622 0 .603.676.224 1.502-.844 1.481-1.912 1.494-1.911.906.059-.468 1.569-.375 1.687.432.548 1.156-1.633.52-3.388-.909-2.505-.512.316-.931-.325-.931-1.425s.43-2.266.956-2.591.686-1.296.355-2.158c-.511-1.333-.305-1.382 1.383-.328 1.54.962 2.411.973 3.895.051 1.772-1.101 1.748-1.143-.339-.572-1.312.358-2.25.17-2.25-.453 0-.587.648-1.067 1.441-1.067s1.716-.445 2.052-.989c.351-.568-.054-.733-.952-.388-1.139.437-1.394.159-.941-1.023.452-1.177.197-1.459-.926-1.029-.851.327-1.303 1.232-1.004 2.012.299.779.046 1.417-.563 1.417s-1.107-.436-1.107-.97c0-.533-1.577-.91-3.504-.837-1.928.072-3.803-.167-4.167-.531s.088-.662 1.004-.662c.917 0 1.667-.665 1.667-1.479 0-1.209-.45-1.273-2.469-.353-1.357.618-2.301 1.396-2.097 1.728s-2.06.651-5.031.709c-2.972.058-5.403-.28-5.403-.75s.45-.855 1-.855 1-.408 1-.906-.895-.673-1.989-.387-1.757.896-1.473 1.354-.488.641-1.715.405c-1.226-.236-3.319.284-4.65 1.156-1.33.872-2.132 1.12-1.78.551A1.22 1.22 0 0 0 670 634.5c-.568-.351-.777-1.052-.464-1.558.314-.508-.199-.625-1.148-.261-1.073.412-1.473.266-1.068-.39 1.008-1.631 15.069-1.037 17.241.728 1.614 1.311 1.721 1.309.939-.019-.762-1.294-.651-1.311.808-.128 1.437 1.166 1.692 1.162 1.692-.028 0-1.34 3.685-1.657 20.634-1.775 1.869-.013 3.37-.637 3.719-1.545.321-.838 1.034-1.524 1.584-1.524s.705.788.344 1.75c-.588 1.571-.472 1.6 1.141.287 1.086-.885 1.356-1.611.681-1.836-.613-.204-.818-.853-.455-1.441.789-1.276-1.314-.172-3.898 2.047-1.122.964-1.75 1.089-1.75.348 0-.635-.477-1.155-1.059-1.155s-.781.45-.441 1 .168 1-.382 1-1.295-.477-1.654-1.059c-.36-.583-1.625-.983-2.81-.889-3.956.311-5.778-.043-5.181-1.008.325-.526 1.364-.709 2.309-.406 1.229.394 1.355.289.445-.367-1.596-1.15-7.411-.378-6.633.881.688 1.113-4.562-.011-6.255-1.338-.728-.572-1.438-.463-1.904.292-.472.763-.321.942.41.489.635-.392 1.155-.236 1.155.346 0 1.381-2.727 1.378-3.187-.003-.249-.746-1.209-.738-3.222.028-3.132 1.19-4.923.488-2.562-1.005.898-.568 1.007-.936.28-.946-.655-.008-1.469.435-1.809.985s-1.068 1-1.618 1-.78-.357-.51-.792c.269-.436-.371-.858-1.422-.937s-2.14.227-2.419.679c-.28.453-2.202.251-4.27-.45-5.624-1.904-10.581-2.826-9.981-1.857.569.92-7.906 1.064-8.82.151-.3-.301.172-.822 1.049-1.159.924-.355 1.338-.196.984.376-.336.544-.134.989.448.989s1.059-.37 1.059-.823 3.381-.87 7.514-.928c5.521-.077 7.327.208 6.808 1.073-.388.648.092.53 1.068-.262 1.407-1.143 5.832-1.445 21.442-1.461 19.469-.02 26.376.526 26.91 2.126.151.454 2.184.676 4.517.492 3.169-.251 3.862-.071 2.741.709-.919.639-1.039 1.049-.309 1.059.655.008 1.465-.428 1.8-.97.615-.995 5.509-1.034 5.509-.043 0 .294 2.587.487 5.75.428s9.229.404 13.48 1.027 7.402.82 7 .437c-.401-.383-5.455-1.386-11.23-2.229-33.183-4.844-80.682-7.51-106.5-5.978M614 623c-.825.533-1.05.969-.5.969s1.675-.436 2.5-.969 1.05-.969.5-.969-1.675.436-2.5.969m4-.622c0 .207.788.995 1.75 1.75 1.586 1.243 1.621 1.208.378-.378-1.307-1.666-2.128-2.195-2.128-1.372m14.469.672c-.95 1.538.351 2.53 1.635 1.246.718-.718.735-1.277.052-1.699-.56-.346-1.319-.142-1.687.453m4.095.657c-.542 1.425-.428 1.54.56.56.684-.679.991-1.486.683-1.793-.308-.308-.867.247-1.243 1.233M625.5 624c.34.55 1.041 1 1.559 1s.941-.45.941-1-.702-1-1.559-1-1.281.45-.941 1m77.313-.317c.721.289 1.584.253 1.916-.079s-.258-.568-1.312-.525c-1.165.048-1.402.285-.604.604m5 3c.721.289 1.584.253 1.916-.079s-.258-.568-1.312-.525c-1.165.048-1.402.285-.604.604M760 628c1.375.44 3.4.839 4.5.885 1.648.07 1.736-.086.5-.885-.825-.533-2.85-.931-4.5-.885-2.94.083-2.95.1-.5.885m7.394.829c.309.499 2.416 1.205 4.683 1.567 3.715.594 3.99.83 2.79 2.382-1.257 1.624-1.219 1.626.673.023 1.135-.962 2.542-1.369 3.24-.937 1.309.809 11.002 1.569 10.194.799-.261-.249-4.299-1.191-8.974-2.094s-9.55-1.868-10.834-2.145c-1.283-.278-2.081-.095-1.772.405m-119.756 3.672c-.299.78.419 1.108 2.038.93 3.478-.382 3.871-1.093.916-1.658-1.424-.272-2.69.04-2.954.728m6.791.604c0 1.042.564 1.895 1.254 1.895.768 0 1.002-.657.604-1.694-.543-1.414-.058-1.328 2.94.525 2.704 1.671 3.736 1.904 4.181.944.425-.915.747-.952 1.14-.131.301.629 1.422.915 2.49.636 1.833-.48 1.808-.613-.456-2.394-2.503-1.969-6.149-2.612-5.089-.897.336.543.025.781-.691.528-4.157-1.467-6.373-1.263-6.373.588m103.937-.889c-.573.928-.817.849 3.888 1.255 2.065.179 3.975-.032 4.244-.469.27-.436-1.34-.968-3.578-1.181s-4.287-.036-4.554.395M636 633c-.901.582-1.025.975-.309.985.655.008 1.469-.435 1.809-.985.767-1.242.421-1.242-1.5 0m15.583 2.866c-.431.697-.513 1.537-.183 1.867.895.895 1.871-.421 1.387-1.871-.338-1.016-.574-1.016-1.204.004m7.043 1.984c1.722.527 1.965 1.077 1.282 2.9-.881 2.349-2.908 3.104-2.908 1.083 0-.641-.289-.877-.643-.524-.353.354-.083 1.316.6 2.139 1.097 1.322 1.415 1.323 2.723.015.815-.815 2.007-1.186 2.651-.825.816.458.803.26-.046-.656-.962-1.039-.858-1.606.5-2.721.943-.775 1.184-1.144.534-.819s-1.463.133-1.809-.426-1.614-.971-2.819-.916l-2.191.099zm22.874.15c.34.55.816 1 1.059 1s.441-.45.441-1-.477-1-1.059-1-.781.45-.441 1m-13.197 1.641c1.444.421 1.566.812.609 1.965-.975 1.175-.885 1.321.489.794 2.157-.828 1.516-2.841-.984-3.093-1.691-.169-1.705-.13-.114.334m148.51.042c.721.289 1.584.253 1.916-.079s-.258-.568-1.312-.525c-1.165.048-1.402.285-.604.604M822 641c3.419 1.095 6.048 1.095 3.5 0-1.1-.473-2.9-.846-4-.83-1.608.024-1.51.186.5.83m7 1.916c.825.47 3.075 1.127 5 1.46l3.5.606-3.5-1.415c-4.064-1.643-7.533-2.095-5-.651M662 644c-1.375.44-2.05.88-1.5.977s1.79.327 2.755.512c.965.184 1.501-.075 1.191-.577s-.087-.912.495-.912 1.059.375 1.059.833c0 .459.735.834 1.632.834 1.414 0 1.389-.179-.191-1.334-2.012-1.471-1.908-1.464-5.441-.333m13-.259c.825.321 2.087 1.298 2.805 2.171 1.107 1.347 1.14 1.247.215-.662-.6-1.237-1.862-2.214-2.805-2.171-1.39.064-1.431.189-.215.662m26.444 1.078c.259 1.763 1.779 2.011 2.323.379.175-.523-.332-1.201-1.126-1.506-.948-.363-1.359.023-1.197 1.127M670.5 646c-.34.55-.141 1 .441 1s1.059-.45 1.059-1-.198-1-.441-1-.719.45-1.059 1m37.064 2.293c.376.986.935 1.541 1.243 1.233s.001-1.114-.683-1.793c-.988-.98-1.102-.865-.56.56M674 649.06c0 .399.675.985 1.5 1.302.86.33 1.5.02 1.5-.727 0-.716-.675-1.302-1.5-1.302s-1.5.327-1.5.727m11.079 1.068c.044 1.313.321 1.763.621 1.009.458-1.151.677-1.151 1.406 0 .506.799.87.897.879.235.008-.62-.66-1.687-1.485-2.372-1.263-1.049-1.488-.871-1.421 1.128m1.637 4.851c-.291 1.112-.121 2.021.378 2.021.498 0 .906-.45.906-1s.337-.947.75-.882c.413.066 1.627.066 2.7 0 1.601-.097 1.713-.342.625-1.368-1.061-1.001-1.419-.993-1.797.042-.341.931-.83.994-1.753.229-.958-.795-1.414-.553-1.809.958M702.5 655c-.34.55-.141 1 .441 1s1.059-.45 1.059-1-.198-1-.441-1-.719.45-1.059 1m12.064 2.707c-.542 1.425-.428 1.54.56.56.684-.679.991-1.486.683-1.793-.308-.308-.867.247-1.243 1.233m-48.057.282c-.35.566.051.734.941.393 1.732-.665 2.049-1.382.611-1.382-.518 0-1.216.445-1.552.989m17.572.594c.048 1.165.285 1.402.604.605.289-.722.253-1.585-.079-1.917s-.568.258-.525 1.312m2.478.64c-1.816 2.592-2.038 4.192-.445 3.208.611-.378 1.504-.067 1.984.691.699 1.103.876 1.043.889-.299.008-.922.578-1.87 1.265-2.106.688-.237.398-.295-.644-.129-1.422.225-1.609.015-.75-.844.629-.629 1.144-1.504 1.144-1.944 0-1.558-1.908-.77-3.443 1.423m18.048-1.053c.503.813.151.95-1.155.449-1.455-.558-1.324-.189.586 1.642 1.843 1.767 3.022 2.167 4.68 1.588 1.471-.513 2.7-.29 3.653.663 1.996 1.996 2.888-.44 1.07-2.926-1.234-1.688-1.464-1.704-2.96-.208-2.137 2.137-3.101 2.087-1.351-.07.932-1.15.971-1.451.122-.941-.687.413-1.25.274-1.25-.308s-.927-1.059-2.059-1.059c-1.317 0-1.799.421-1.336 1.17m-10.105.595c-1.595 1.172-1.634 3.235-.062 3.235.821 0 1.373-.857 1.287-2-.083-1.1-.167-1.993-.188-1.985s-.487.346-1.037.75m-17.06 3.985c-1.262 1.939-1.347 2.388-.291 1.524 1.149-.94 1.773-.952 2.675-.05s1.176.896 1.176-.024c0-.66-.436-1.2-.969-1.2s-.709-.675-.393-1.5c.923-2.404-.256-1.734-2.198 1.25m-3.967-.794c.325.526 1.252.703 2.059.393 2.067-.793 1.824-1.349-.591-1.349-1.132 0-1.793.43-1.468.956m22.34 1.727c.721.289 1.584.253 1.916-.079s-.258-.568-1.312-.525c-1.165.048-1.402.285-.604.604M709 671c0 .55.477 1 1.059 1s.781-.45.441-1-.816-1-1.059-1-.441.45-.441 1m-2 2c.825.533 1.95.969 2.5.969s.325-.436-.5-.969-1.95-.969-2.5-.969-.325.436.5.969m17.5 1c-.34.55-.141 1 .441 1s1.059-.45 1.059-1-.198-1-.441-1-.719.45-1.059 1m16.5 8.575c0 1.139.797 1.492 2.875 1.274 1.581-.166 3.625.321 4.542 1.082 1.37 1.137 1.884 1.151 2.875.08.951-1.027.931-1.148-.095-.566-.782.443-2.028-.098-3.117-1.353-1.812-2.089-4.75-2.985-3.58-1.092.34.55.141 1-.441 1s-1.059-.45-1.059-1-.45-1-1-1-1 .709-1 1.575m18 10.803c0 .207.675.937 1.5 1.622 1.229 1.02 1.5.951 1.5-.378 0-.892-.675-1.622-1.5-1.622s-1.5.17-1.5.378m-296.671 10.065c-25.816 9.449-39.303 15.179-57.329 24.358-27.326 13.916-56.161 32.591-82.012 53.116-19.144 15.199-55.354 50.897-66.648 65.703l-2.581 3.385 6.871 7.714c13.042 14.645 40.91 41.887 53.87 52.659 36.048 29.962 75.208 53.779 121.69 74.012 13.233 5.76 45.871 17.61 48.503 17.61.197 0-2.081-2.876-5.063-6.39-25.365-29.9-44.966-76.568-49.608-118.11-1.319-11.804-1.301-43.013.033-55.289 4.416-40.674 20.201-79.45 46.102-113.252 4.864-6.348 8.843-11.861 8.843-12.25 0-1.377-2.702-.574-22.671 6.734m375.404-6.319c.679.684 1.486.991 1.793.683.308-.308-.247-.867-1.233-1.243-1.425-.542-1.54-.428-.56.56m-81.733.254c0 .207.788.995 1.75 1.75 1.586 1.243 1.621 1.208.378-.378-1.307-1.666-2.128-2.195-2.128-1.372m4.733 3.746c.679.684 1.486.991 1.793.683.308-.308-.247-.867-1.233-1.243-1.425-.542-1.54-.428-.56.56m3.767 2.529c.55.521 3.25 2.7 6 4.844 2.75 2.143 9.5 8.195 15 13.45s8.65 8.011 7 6.127c-6.288-7.18-14.222-14.785-20-19.169-5.866-4.451-10.066-7.208-8-5.252m96.5 1.225c0 .498 1.083 1.177 2.407 1.509 1.324.333 3.237.903 4.25 1.268 3.231 1.163.885-.53-2.958-2.136-2.035-.85-3.699-1.139-3.699-.641m10.733 4.246c.679.684 1.486.991 1.793.683.308-.308-.247-.867-1.233-1.243-1.425-.542-1.54-.428-.56.56M876 711c1.958 1.266 3.282 1.266 2.5 0-.34-.55-1.379-.993-2.309-.985-1.457.014-1.484.15-.191.985m-220.848 12.534c-9.305 11.829-18.73 58.707-21.284 105.862-2.122 39.174 1.771 83.855 10.17 116.753 4.373 17.128 9.39 28.94 13.146 30.95 3.333 1.783 5.998-2.103 10.138-14.783 5.413-16.576 7.934-27.11 11.163-46.635 3.884-23.485 5.707-73.491 3.604-98.847-3.07-37.019-9.849-69.778-18.125-87.584-4.129-8.885-5.58-9.825-8.812-5.716m194.921 1.216c1.229 2.063 2.886 4.425 3.681 5.25.796.825.013-.862-1.74-3.75s-3.409-5.25-3.681-5.25.51 1.688 1.74 3.75M796.5 734c.995 1.1 2.035 2 2.31 2s-.315-.9-1.31-2-2.035-2-2.31-2 .315.9 1.31 2m4 5c.995 1.1 1.969 2 2.163 2 .195 0-.208-.9-.895-2s-1.661-2-2.164-2c-.502 0-.099.9.896 2M666 742.274c0 .885.41 1.862.912 2.172s.815-.101.696-.912c-.314-2.142-1.608-3.155-1.608-1.26m137 .104c0 .207.788.995 1.75 1.75 1.586 1.243 1.621 1.208.378-.378-1.307-1.666-2.128-2.195-2.128-1.372m-140.667 4.078c0 .801.383 1.22.85.931s.591-.944.274-1.456c-.808-1.308-1.124-1.161-1.124.525m4.48.227c.721.289 1.584.253 1.916-.079s-.258-.568-1.312-.525c-1.165.048-1.402.285-.604.604m140.025.817c1.518 2.989 4.099 6.141 4.094 5-.002-.55-1.153-2.35-2.557-4s-2.096-2.1-1.537-1m-160.141 3.893c-.409 1.041-.508 2.129-.221 2.417.913.912 1.715-.583 1.333-2.482-.35-1.74-.404-1.737-1.112.065M818.08 766c1.458 3.061 1.92 3.628 1.92 2.358 0-.537-.7-1.849-1.555-2.917-1.467-1.83-1.487-1.798-.365.559m2.484 5.293c.376.986.935 1.541 1.243 1.233s.001-1.114-.683-1.793c-.988-.98-1.102-.865-.56.56m4.981 11.957c.374 1.237 1.091 2.69 1.595 3.227.503.538.408-.475-.211-2.25-1.266-3.633-2.436-4.458-1.384-.977m2.534 6.333c.048 1.165.285 1.402.604.605.289-.722.253-1.585-.079-1.917s-.568.258-.525 1.312m51 0c.048 1.165.285 1.402.604.605.289-.722.253-1.585-.079-1.917s-.568.258-.525 1.312m1.061 3.917c-.032 1.1.792 5.375 1.83 9.5 1.829 7.263 1.871 7.326 1.31 2-.623-5.926-3.045-14.793-3.14-11.5m-50.061 2.083c.048 1.165.285 1.402.604.605.289-.722.253-1.585-.079-1.917s-.568.258-.525 1.312m2 7c.048 1.165.285 1.402.604.605.289-.722.253-1.585-.079-1.917s-.568.258-.525 1.312M833.17 807c.016.825.39 2.625.83 4 .644 2.01.806 2.108.83.5.016-1.1-.357-2.9-.83-4-.527-1.225-.848-1.419-.83-.5m50.988 6c0 1.375.227 1.938.504 1.25.278-.687.278-1.812 0-2.5-.277-.687-.504-.125-.504 1.25m-49 4c0 1.375.227 1.938.504 1.25.278-.687.278-1.812 0-2.5-.277-.687-.504-.125-.504 1.25m.921 6.583c.048 1.165.285 1.402.604.605.289-.722.253-1.585-.079-1.917s-.568.258-.525 1.312m2.173 15.917c.011 2.2.216 2.982.455 1.738s.23-3.044-.02-4-.446.062-.435 2.262m-.094 9.5c0 1.375.227 1.938.504 1.25.278-.687.278-1.812 0-2.5-.277-.687-.504-.125-.504 1.25m.178 10c0 4.125.177 5.813.392 3.75s.216-5.437 0-7.5c-.215-2.062-.392-.375-.392 3.75m-1.729 13.757c-2.622 23.176-13.501 52.911-27.228 74.423-2.569 4.026-5.489 8.232-6.49 9.347-1.776 1.98-1.637 7.053.163 5.941.454-.281 1.278.287 1.832 1.261.813 1.429.935 1.192.631-1.229-.208-1.65-.415-3.225-.461-3.5s-.521.175-1.054 1c-.582.901-.975 1.025-.985.309-.008-.655.442-1.474 1.001-1.819.559-.346.71-1.124.336-1.729-.435-.704-.092-.875.952-.475.898.345 1.898.196 2.223-.33s.093-.956-.515-.956c-.616 0-.316-1.047.679-2.366 1.603-2.125 1.907-2.201 2.983-.75.943 1.273.895 2.083-.227 3.814-.887 1.368-1.052 2.428-.436 2.809.544.336.989.149.989-.417 0-.565.713-.754 1.584-.419 1.275.489 1.324.772.25 1.453-1.042.66-.977.849.3.861 2.026.019 1.871-5.06-.234-7.625-1.261-1.538-1.168-1.647.949-1.101 1.292.333 2.095.352 1.785.042s-.085-1.459.501-2.553c.632-1.18.663-1.741.078-1.38-1.158.716-3.8-2.114-2.856-3.059.354-.353.643-.117.643.524 0 1.533 5.26 1.507 6.8-.033.933-.933 1.2-.872 1.2.278 0 .813.905 2.253 2.011 3.2 2.232 1.91 3.44 2.261 2.489.722-.34-.55-.141-1 .441-1s1.059-.9 1.059-2 .45-2 1-2 1-.54 1-1.2c0-.933-.267-.933-1.2 0-1.432 1.432-2.8 1.563-2.8.267 0-.513.934-1.229 2.075-1.591s1.851-.884 1.576-1.159c-.934-.934-4.651.811-4.651 2.184 0 .869-1.089 1.334-3 1.28-3.134-.089-4.113-2.14-1.5-3.143.825-.316 1.5-.139 1.5.393 0 .533.52.969 1.155.969.643 0 .311-.963-.75-2.172-1.048-1.194-1.343-1.843-.656-1.442.863.505 1.171.052 1-1.468-.137-1.208.325-2.326 1.026-2.483s.79-.048.197.241c-.661.322-.38 1.055.725 1.893 1.172.889 1.345 1.379.494 1.399-.72.018-1.026.489-.681 1.048.865 1.399 2.743.085 2.136-1.495-.269-.703-.022-1.745.55-2.317.72-.72.409-1.433-1.008-2.319-1.615-1.008-1.835-1.676-1.041-3.16.554-1.035.761-2.521.461-3.303s.003-1.436.673-1.454c.695-.018.449-.616-.57-1.389-1.469-1.114-1.559-1.601-.5-2.718.709-.749 1.303-1.811 1.32-2.361.064-2.075 1.651-7.494 2.314-7.904.381-.236.684 1.741.674 4.392-.011 2.65-.356 4.611-.769 4.357-.919-.567-.861.511.171 3.154.531 1.361.269 2.422-.821 3.324-.88.729-.987 1.009-.238.623.754-.389 1.751-.088 2.234.676.633.998.878 1.033.889.128.008-.687.492-1.25 1.074-1.25s.738.52.346 1.155c-.446.721-.274.882.457.43.644-.398.859-1.227.478-1.844-1.812-2.931-1.742-22.402.106-29.533 1.426-5.504 2.561-10.553 3.98-17.708 1.24-6.251 1.588-11.5.764-11.5-.512 0-1.225 2.591-1.583 5.757M885.158 878c0 1.375.227 1.938.504 1.25.278-.687.278-1.812 0-2.5-.277-.687-.504-.125-.504 1.25m-1.52 7.5c-.316.825-.139 1.5.393 1.5.533 0 .969-.675.969-1.5s-.177-1.5-.393-1.5-.652.675-.969 1.5M838 890.059c0 1.682.39 2.818.866 2.524.805-.498.366-5.583-.483-5.583-.21 0-.383 1.377-.383 3.059m42.632 9.441c-1.544 6.6-3.194 13.237-3.667 14.75-.484 1.547-.482 2.75.006 2.75.477 0 1.338-1.913 1.914-4.25 3.462-14.05 5.157-22.281 4.875-23.668-.178-.87-1.585 3.818-3.128 10.418m-14.601 17c0 .55.436 1.675.969 2.5s.969 1.05.969.5-.436-1.675-.969-2.5-.969-1.05-.969-.5m9.131 4.043c-1.395 3.062-1.427 3.457-.279 3.457.793 0 2.301-5.132 1.691-5.754-.137-.14-.772.894-1.412 2.297m-44.703.524c-.363.586-.445 1.281-.183 1.543s.743-.218 1.069-1.067c.676-1.762.1-2.072-.886-.476M873 927.5c0 .825.177 1.5.393 1.5s.652-.675.969-1.5.139-1.5-.393-1.5c-.533 0-.969.675-.969 1.5m-5.842 1.5c0 1.375.227 1.938.504 1.25.278-.687.278-1.812 0-2.5-.277-.687-.504-.125-.504 1.25m-34.079 1.583c.048 1.165.285 1.402.604.605.289-.722.253-1.585-.079-1.917s-.568.258-.525 1.312m-5.409.834c-.69 1.798 1.563 2.717 3.421 1.396 1.116-.793 1.045-.884-.341-.439-1.976.636-2.434-.932-.5-1.712.789-.318.645-.533-.393-.583-.904-.043-1.888.559-2.187 1.338m42.789 3.65c-.363.586-.445 1.281-.183 1.543s.743-.218 1.069-1.067c.676-1.762.1-2.072-.886-.476m-42.054 1.088q-.712 1.152.61.335c.954-.589 1.151-.366.706.795-.435 1.133-.188 1.448.83 1.057.797-.306 1.449-1.183 1.449-1.949 0-1.682-2.597-1.855-3.595-.238m40.324 2.449c-.401.401-.729 1.554-.729 2.563 0 1.008-.42 1.833-.933 1.833s-1.228 1.013-1.589 2.25c-1.391 4.767-3.016 7.75-4.222 7.75-.691 0-1.256-.477-1.256-1.059s.45-.781 1-.441 1-.084 1-.941-.42-1.559-.933-1.559c-1.332 0-2.312 3.654-1.589 5.93.392 1.236-.483 3.665-2.432 6.75-2.014 3.189-2.94 4.067-2.738 2.596.169-1.224.619-2.536 1-2.917 1.273-1.273.71-7.099-.808-8.359-1.224-1.016-1.5-.958-1.5.312 0 .857.458 2.763 1.019 4.237.853 2.245.77 2.584-.513 2.092-1.209-.464-1.399-.065-.907 1.899.372 1.482.074 3.164-.737 4.165-.939 1.157-.974 1.446-.112.928 1.636-.983 1.607 1.156-.06 4.367-4.158 8.012-2.227 7.413 2.487-.771 6.937-12.046 7.964-13.965 11.859-22.165 3.595-7.568 4.706-11.473 2.693-9.46M832 942c-.901.582-1.025.975-.309.985.655.008 1.469-.435 1.809-.985.767-1.242.421-1.242-1.5 0m2.5 2c-.34.55-.141 1 .441 1s1.059-.45 1.059-1-.198-1-.441-1-.719.45-1.059 1m-10.649 2.251c.757.757 1.486.812 2.137.161s.259-1.043-1.149-1.149c-1.61-.121-1.854.122-.988.988m8.129 1.273c-.696.838-.976 1.813-.623 2.167.354.353.65.005.658-.774.013-1.174.177-1.162.956.07.739 1.169.904 1.009.772-.75-.2-2.658-.162-2.642-1.763-.713m121.001-.001c-1.057 1.273-.995 1.42.378.893.902-.347 1.641-1.032 1.641-1.523 0-1.286-.579-1.105-2.019.63M854 949c-1.207.78-1.049.972.809.985 1.288.008 2.036-.427 1.691-.985-.743-1.202-.639-1.202-2.5 0m-25.654.665c.367.64.124 1.345-.539 1.566-.788.263-.651.615.395 1.016 1.688.648 1.931-1.514.333-2.968-.47-.428-.556-.255-.189.386m7.844.895c-.72.816-1.733 1.222-2.25.903-.517-.32-.94-.152-.94.372s1.082.889 2.404.809 2.196-.481 1.941-.894.014-.75.596-.75 1.059-.45 1.059-1c0-1.426-1.282-1.171-2.81.56m-12.21 3.964c-1.838 2.215-.792 2.47 1.27.309.962-1.008 1.355-1.833.872-1.833-.482 0-1.446.686-2.142 1.524m7.02 2.535c0 .582.45.781 1 .441s1-.816 1-1.059-.45-.441-1-.441-1 .477-1 1.059m-11.667 2.397c0 .801.383 1.22.85.931s.591-.944.274-1.456c-.808-1.308-1.124-1.161-1.124.525M826 959c-.901.582-1.025.975-.309.985.655.008 1.469-.435 1.809-.985.767-1.242.421-1.242-1.5 0m7.613.183c.289.467.944.591 1.456.274 1.308-.808 1.161-1.124-.525-1.124-.801 0-1.22.383-.931.85M816 960c0 .55.477 1 1.059 1s.781-.45.441-1-.816-1-1.059-1-.441.45-.441 1m-3.705 2.515c-.946 1.023-.91 1.419.167 1.832.755.29 1.615-.105 1.912-.878.74-1.929-.607-2.548-2.079-.954m6.248 1.416c-.317.512-.193 1.167.274 1.456s.85-.13.85-.931c0-1.686-.316-1.833-1.124-.525m-19.96.935c-.431.697-.513 1.537-.183 1.867.895.895 1.871-.421 1.387-1.871-.338-1.016-.574-1.016-1.204.004m48.982.029c-.305.493.119 1.153.941 1.469.907.348 1.494-.003 1.494-.895 0-1.618-1.563-1.986-2.435-.574M826 966c-.901.582-1.025.975-.309.985.655.008 1.469-.435 1.809-.985.767-1.242.421-1.242-1.5 0m-21.504 2.193c.089 1.206.629 2.349 1.202 2.54.616.205.842-.688.554-2.193-.594-3.11-1.98-3.383-1.756-.347m9.608-1.279c-.777.493-1.119 1.603-.772 2.508.503 1.312.979 1.401 2.479.464 2.008-1.254 2.535-3.896.772-3.871-.596.009-1.711.413-2.479.899m8.201 1.605c-.652.697-.887 1.565-.524 1.929.364.363.054 1.036-.688 1.495-1.615.998-.588 3.057 1.525 3.057.825 0 1.241-.419.925-.931s-.068-1.245.552-1.628 1.521-.077 2.001.681c1.177 1.857 1.131 3.137-.085 2.385-.566-.35-.734.051-.393.941 1.113 2.9 2.257 1.567 2.2-2.564-.031-2.263-.341-3.726-.687-3.25-1.08 1.482-4.131 1.222-4.131-.352 0-.919.579-1.274 1.5-.92.825.316 1.5.187 1.5-.286 0-1.504-2.464-1.875-3.695-.557m7.998-.878c1.43.417 1.56.819.628 1.943-.928 1.117-.852 1.416.358 1.416 2.232 0 1.404-3.461-.883-3.693-1.696-.171-1.707-.134-.103.334m79.947 3.443c-1.237.469-2.25 1.065-2.25 1.326 0 .592 4.078-.154 4.802-.879 1.042-1.042-.339-1.284-2.552-.447m89 4.015c-2.337 1.656-4.25 3.233-4.25 3.504s2.025-.9 4.5-2.603 4.5-3.299 4.5-3.548c0-.688-.19-.583-4.75 2.647m-98.8.718c-.936.805-11.23 5.511-18.854 8.618-2.146.875-3.62 1.874-3.274 2.221.346.346 1.291.08 2.099-.59.928-.771 5.54-1.283 12.524-1.393 6.08-.095 11.054-.51 11.055-.923s-.468-.75-1.039-.75c-.6 0-.494-.59.25-1.395.709-.767 1.696-1.148 2.194-.846.497.303.583.03.19-.604-.392-.635-.236-1.155.346-1.155s1.059-.477 1.059-1.059-.453-.779-1.007-.437c-.554.343-1.277-.081-1.607-.941-.653-1.701-2.433-2.039-3.936-.746m-1.739 2.604c-1.646 1.248-1.66 1.487-.179 2.968 2.199 2.199 2.584 2.033 2.054-.889-.461-2.543.879-3.531 1.694-1.25.245.688.778.942 1.183.567.97-.9-.255-2.826-1.772-2.785-.655.017-1.996.642-2.98 1.389m-68.451 2.127c-.788.855-.877 1.571-.243 1.963.548.338 1.275-.107 1.614-.991.826-2.153.155-2.629-1.371-.972M819 982c0 .55.45 1 1 1s1-.45 1-1-.45-1-1-1-1 .45-1 1m74 .031c0 .533.675.969 1.5.969s1.5-.177 1.5-.393-.675-.652-1.5-.969-1.5-.139-1.5.393m-79 2.469c.685.825 1.672 1.5 2.194 1.5s.274-.675-.551-1.5-1.812-1.5-2.194-1.5-.134.675.551 1.5m7.143-.593c-1.006.625-1.053 1.03-.183 1.568 1.372.848 2.402.097 1.894-1.38-.208-.606-.914-.683-1.711-.188m-4.33 3.776c.721.289 1.584.253 1.916-.079s-.258-.568-1.312-.525c-1.165.048-1.402.285-.604.604m9.687 2.2c0 1.531.548 2.784 1.218 2.784 1.362 0 1.168-3.181-.282-4.631-.581-.581-.936.118-.936 1.847m-56.842 3.567c-.347.904.103 1.164 1.417.82 2.298-.601 2.386-.879.508-1.6-.78-.299-1.646.052-1.925.78m106.815-.494c.325.526 1.252.703 2.059.393 2.067-.793 1.824-1.349-.591-1.349-1.132 0-1.793.43-1.468.956M815 998c-.901.582-1.025.975-.309.985.655.008 1.469-.435 1.809-.985.767-1.242.421-1.242-1.5 0m147.5.613c-1.1.853-3.687 2.294-5.75 3.204-3.126 1.38-4.998 3.183-3.304 3.183.783 0 12.554-7.077 12.554-7.548 0-.876-1.522-.371-3.5 1.161m-199.421.97c.048 1.165.285 1.402.604.605.289-.722.253-1.585-.079-1.917s-.568.258-.525 1.312m190.734-.9c.721.289 1.584.253 1.916-.079s-.258-.568-1.312-.525c-1.165.048-1.402.285-.604.604m-167.734 1.9c.048 1.165.285 1.402.604.605.289-.722.253-1.585-.079-1.917s-.568.258-.525 1.312m31.921 1.476c0 .582.45.781 1 .441s1-.816 1-1.059-.45-.441-1-.441-1 .477-1 1.059m-61.5.941c.34.55.816 1 1.059 1s.441-.45.441-1-.477-1-1.059-1-.781.45-.441 1m105.083-.25c-.412.413-1.162.75-1.666.75-.933 0-.977.17-.838 3.25.063 1.397.195 1.447.656.25.318-.825 1.476-2.288 2.575-3.25 1.098-.962 1.552-1.75 1.01-1.75-.543 0-1.324.337-1.737.75M832 1005c-.901.582-1.025.975-.309.985.655.008 1.469-.435 1.809-.985.767-1.242.421-1.242-1.5 0m36.543-.069c-.317.512-.193 1.167.274 1.456s.85-.13.85-.931c0-1.686-.316-1.833-1.124-.525M819 1006c0 .55.45 1 1 1s1-.45 1-1-.45-1-1-1-1 .45-1 1m123.826 3.523c-4.771 2.432-8.993 4.939-9.383 5.57-.745 1.205 13.925-6.144 17.173-8.603 3.022-2.288 1.437-1.671-7.79 3.033M797.5 1007c-.758 1.227.236 3 1.681 3 .727 0 .711-.426-.05-1.342-.612-.738-.818-1.638-.456-2s.385-.658.051-.658c-.335 0-.886.45-1.226 1m28.5-.607c0 .949 2.993 1.427 3.527.563.325-.526-.336-.956-1.468-.956s-2.059.177-2.059.393m7.543.538a1.086 1.086 0 0 0 .336 1.494c.501.31 1.169-.109 1.485-.931.622-1.62-.881-2.085-1.821-.563m-15.929 1.506c.303.79 1.227 1.178 2.053.861 1.221-.469 1.252-.734.167-1.422-1.994-1.264-2.838-1.051-2.22.561m4.401-.746c-.024 1.872 2.04 2.664 3.322 1.275.9-.974.855-1.084-.199-.485-.806.459-1.718.213-2.234-.603-.574-.906-.879-.97-.889-.187m18.652-.024c-1.419 1.419-.547 2.333 2.226 2.333 1.621 0 3.141.645 3.456 1.468.65 1.693-.856 2.955-2.393 2.005-.574-.355-1.659-.135-2.411.489-.94.78-1.57.807-2.015.087-.824-1.333-2.53-1.366-2.53-.049 0 .55.645 1 1.433 1 .951 0 1.404 1.03 1.346 3.06-.05 1.782-.398 2.557-.832 1.854-.41-.663-1.494-.918-2.409-.567-.916.351-1.357 1.137-.981 1.746.435.703-.181.645-1.686-.157-2.161-1.152-2.25-1.116-.999.4 1.432 1.735.512 2.132-2.374 1.025-1.329-.51-1.396-.81-.332-1.485 1.022-.647.924-.849-.416-.861-.962-.008-1.75-.492-1.75-1.074s-.5-.75-1.112-.372c-.611.378-1.55.067-2.087-.691-.718-1.016-.845-.787-.481.872.271 1.237.295 2.25.054 2.25s-.884-1.013-1.428-2.25c-.912-2.076-.958-2.03-.59.585.334 2.371.092 2.754-1.48 2.343-1.116-.292-1.624-.079-1.25.525.345.56 2.111.777 3.923.483 4.2-.682 5.449 1.714 2.313 4.434-1.193 1.034-2.379 1.88-2.637 1.88-.554 0 1.891-3.22 3.132-4.125.471-.344.355-.935-.257-1.313-.614-.38-1.423.126-1.801 1.125-.378.997-1.279 2.412-2.002 3.144-1.28 1.294-.941 3.169.573 3.169.414 0 1.697-.88 2.852-1.955 1.78-1.659 2.186-1.727 2.677-.448.328.854.15 1.242-.41.896-.544-.336-.989-.134-.989.448s.45 1.059 1 1.059 1 .505 1 1.122c0 .809-.364.821-1.302.042-1.488-1.234-5.961-.399-5.123.957.303.491-.14 1.159-.986 1.483-1.32.507-1.339.789-.133 1.995 1.045 1.045 2.062 1.155 3.974.427 1.669-.634 2.57-.634 2.57-.001 0 .536-.948.975-2.107.975-1.442 0-1.929.464-1.544 1.468.692 1.804.149 2.16-4.668 3.064-3.345.628-3.871.458-4.359-1.409-.56-2.143-3.322-3.027-3.322-1.064 0 .582.399.813.886.511.488-.301 1.115.326 1.394 1.393.279 1.068-.007 2.184-.636 2.48s-.063.266 1.257-.068c1.952-.492 2.282-.294 1.762 1.062q-.643 1.67.518.951 1.159-.715.526.933c-.543 1.416-.355 1.476 1.33.424 1.08-.674 1.963-2.018 1.963-2.986 0-.967.436-1.759.969-1.759s.709.675.393 1.5c-.354.922.002 1.5.924 1.5.825 0 1.759.675 2.076 1.5.344.896.008 1.5-.834 1.5-.776 0-1.664.41-1.974.912-.61.988.916.837 3.69-.366.96-.415 1.525-1.111 1.256-1.546s.169-1.043.974-1.352c.804-.308 1.704-.169 2 .31s-.027 1.078-.718 1.332c-1.003.367-1.005.726-.01 1.781 1.027 1.088 1.523.978 2.813-.625 1.054-1.309 1.731-1.555 2.068-.752.276.656 1.148.946 1.938.643 1.94-.745 1.823-2.337-.172-2.337-1.018 0-1.396-.55-1.031-1.5.356-.93-.005-1.5-.952-1.5-.841 0-1.253.445-.917.989.357.577-.069.727-1.025.36-.9-.345-1.245-.902-.768-1.238 1.051-.74 1.077-2.668.05-3.694-.413-.413-.75-1.157-.75-1.655s.704-.201 1.564.659 1.283 2.017.941 2.571c-.562.91.959 1.381 4.166 1.29.644-.018.953.534.687 1.228-.46 1.199.068 1.242 7.392.6 1.58-.139 1.66-3.11.083-3.11-.641 0-.931-.236-.643-.524.852-.851 3.849.652 3.245 1.629-.304.492-.076.895.506.895s1.059-.439 1.059-.975c0-.591.886-.648 2.25-.144 1.237.458 2.813.634 3.5.392.688-.242 1.25.012 1.25.564s-1.237 1.243-2.75 1.534c-10.926 2.107-14.517 3.041-13 3.382.962.217 1.764.923 1.78 1.57s.479.408 1.027-.531 1.635-1.464 2.416-1.164c1.911.733 12.527-2.415 12.527-3.715 0-.567.391-.789.87-.494 1.22.755 13.13-3.391 13.13-4.571 0-1.384-6.14-.233-7.137 1.339-.686 1.082-.835 1.08-.848-.008-.008-.727.641-1.978 1.443-2.779 1.566-1.567.993-4.797-.67-3.769-.634.392-.561.891.202 1.363.777.48.114 1.123-1.872 1.815-1.89.659-3.298.709-3.655.131-.32-.517-.035-.94.633-.94.747 0 .482-.865-.691-2.25l-1.905-2.25 2.311 1.96c1.926 1.634 2.457 1.725 3.184.548 1.24-2.007.515-2.689-2.964-2.788-3.712-.106-6.232-2.302-4.94-4.308.776-1.205 1.053-1.193 1.894.088.594.905.99 1.028 1 .309.008-.655-.442-1.474-1.001-1.819-.559-.346-.758-1.047-.441-1.559.316-.512-.153-.931-1.043-.931-.965 0-1.363-.504-.985-1.25.348-.687-.007-.469-.79.484-.782.954-1.716 1.517-2.074 1.25s-.388-.146-.068.266c.321.412.996.806 1.5.875 2.225.303 2.335.458.951 1.333-.916.579-1.916.555-2.661-.064-.803-.666-1.43-.61-1.912.169-.395.638-.159 1.506.524 1.928.965.596.938.876-.122 1.257-1.097.395-1.126.893-.149 2.55.952 1.615.952 2.166 0 2.552-.928.376-.919.511.036.571.688.043 1.25.584 1.25 1.201q0 1.123-1.587-.194c-1.044-.867-1.455-2.445-1.201-4.619.305-2.612-.03-3.434-1.6-3.932-1.933-.614-1.936-.667-.108-2.004 1.033-.755 1.369-1.373.746-1.373s-1.415.457-1.76 1.016c-.346.559-1.117.715-1.714.346-.647-.401-.797-.206-.371.483.939 1.521-.673 1.487-2.205-.045-1.402-1.402-1.621-3.178-.29-2.356 1.527.944 3.998-.52 3.42-2.027-.325-.847.079-1.417 1.004-1.417.851 0 1.87-.521 2.263-1.158.49-.793.037-.98-1.44-.593-1.185.31-2.407.155-2.715-.343-1.004-1.624-2.396-.953-1.751.844.367 1.025.251 1.405-.282.917-1.265-1.159-1.23-5.643.045-5.778.575-.061 2.022-.033 3.215.061 1.777.141 2.117-.298 1.882-2.432-.289-2.633-3.769-6.164-4.384-4.448-.184.511-.773.93-1.309.93-.537 0-.698-.45-.358-1 .699-1.132.175-1.342-.833-.333M791.5 1009c-.34.55-.141 1 .441 1s1.059-.45 1.059-1-.198-1-.441-1-.719.45-1.059 1m18.5-.083c0 .596.702 1.083 1.559 1.083s1.31.403 1.006.895c-.305.493.18 1.177 1.076 1.521 1.468.563 1.483.404.159-1.591-1.648-2.482-3.8-3.563-3.8-1.908m26 .975c0 .674-.52.905-1.155.513-.674-.417-.884-.277-.505.336.357.577-.1 1.337-1.016 1.688-.915.351-2.031.061-2.479-.645-.599-.944-.818-.821-.83.466-.008.962.61 1.75 1.374 1.75 1.964 0 6.264-3.674 5.361-4.581-.413-.414-.75-.201-.75.473m13-.059c0 .459.655.834 1.456.834s1.224-.375.941-.834-.938-.833-1.456-.833-.941.375-.941.833m84.572-.083c.497.413 1.241 1.2 1.651 1.75.426.571.753.249.762-.75.008-.973-.725-1.75-1.652-1.75-.916 0-1.259.337-.761.75M818.5 1011c-.34.55.084 1 .941 1s1.559-.45 1.559-1-.423-1-.941-1-1.219.45-1.559 1m51.716.845c-.708.449-.996 1.564-.643 2.485.435 1.133.124 1.67-.966 1.67-.884 0-1.607-.477-1.607-1.059s-.43-.793-.956-.468c-1.331.823-.133 3.527 1.563 3.527.766 0 1.393.436 1.393.969s.755.679 1.677.325c1.499-.575 1.472-.72-.25-1.364-1.782-.666-1.738-.799.573-1.762 1.375-.572 1.98-1.07 1.344-1.105-.656-.036-.93-.929-.634-2.063.578-2.209.393-2.352-1.494-1.155m-61.398 1.373c.533.533 1.805.793 2.826.576 1.375-.291 1.123-.543-.97-.969-1.825-.373-2.482-.233-1.856.393M862.5 1013c-.34.55.11 1 1 1s1.34-.45 1-1-.79-1-1-1-.66.45-1 1m-46.189 1.306c-.295.477-.051 1.354.543 1.948.774.774 1.26.612 1.713-.568.481-1.254 1.073-1.414 2.467-.668 2.656 1.422 3.966 1.21 3.966-.64 0-1.284-.295-1.378-1.411-.452-.894.742-1.634.811-2.02.186-.727-1.176-4.497-1.038-5.258.194m9.689-.247c0 .582.45.781 1 .441s1-.816 1-1.059-.45-.441-1-.441-1 .477-1 1.059m8.682 2.554c.604 1.575 1.934 1.817 2.748.501.301-.488-.314-1.112-1.366-1.387-1.34-.351-1.755-.085-1.382.886m-35.118 2.094c-.542 1.425-.428 1.54.56.56.684-.679.991-1.486.683-1.793-.308-.308-.867.247-1.243 1.233m13.039-.874c-.283.459.12.834.897.834s1.18-.375.897-.834-.687-.833-.897-.833-.614.375-.897.833m17.897.167c-1.908.82-1.897.863.25.93 1.237.038 2.25-.38 2.25-.93s-.112-.968-.25-.93c-.138.039-1.15.457-2.25.93m-36.993.989c-.35.566.051.734.941.393 1.732-.665 2.049-1.382.611-1.382-.518 0-1.216.445-1.552.989m25 0c-.35.566.051.734.941.393 1.732-.665 2.049-1.382.611-1.382-.518 0-1.216.445-1.552.989m-15.774 1.135c.679.684 1.486.991 1.793.683.308-.308-.247-.867-1.233-1.243-1.425-.542-1.54-.428-.56.56M811 1021c.825.533 1.95.969 2.5.969s.325-.436-.5-.969-1.95-.969-2.5-.969-.325.436.5.969m100.25-.22c-1.237.197-2.25.778-2.25 1.29 0 1.286 3.731 1.174 4.541-.137.856-1.384.445-1.59-2.291-1.153m-63.686 1.117c-.295.477.775.815 2.38.749 3.148-.129 3.193-.85.081-1.324-1.058-.162-2.166.097-2.461.575m29.709 1.132c-.171 2.268 2.363 3.321 4.563 1.897 1.518-.982 1.51-1.029-.086-.533-1.076.335-1.75.02-1.75-.817 0-2.105-2.571-2.62-2.727-.547m18.865-.696c-.837 1.01-.746 1.334.378 1.334.816 0 1.484-.6 1.484-1.334 0-.733-.17-1.333-.378-1.333-.207 0-.875.6-1.484 1.333m3.5.167c.317.825 1.033 1.5 1.591 1.5.586 0 .489-.635-.229-1.5-.685-.825-1.401-1.5-1.591-1.5s-.087.675.229 1.5m4.362-.562c0 .516.869.872 1.931.792s1.71-.502 1.441-.938c-.686-1.108-3.372-.993-3.372.146m-105.187.745c.721.289 1.584.253 1.916-.079s-.258-.568-1.312-.525c-1.165.048-1.402.285-.604.604m37.732.245c-.202.327.214 1.39.925 2.362 1.163 1.591 1.356 1.606 1.912.158.34-.887.618-1.95.618-2.363 0-.887-2.922-1.02-3.455-.157m-7.298 3.525c.887 2.89 1.351 3.297 2.844 2.498.981-.525 1.719-1.823 1.639-2.884s-.532-1.689-1.006-1.397c-.473.293-.604 1.199-.291 2.015.348.907.083 1.322-.682 1.07-.688-.226-1.395-1.389-1.571-2.583s-.696-2.172-1.156-2.172-.36 1.554.223 3.453m-18.266-.93c-1.057 1.273-.995 1.42.378.893.902-.347 1.641-1.032 1.641-1.523 0-1.286-.579-1.105-2.019.63M865.5 1025c.34.55 1.491 1 2.559 1s1.941-.45 1.941-1-1.152-1-2.559-1c-1.451 0-2.292.433-1.941 1m28.5 1.081c-1.157.81-.956.896.875.377 1.616-.457 2.157-.318 1.691.435-.426.69.186 1.095 1.625 1.075 2.246-.031 2.256-.072.368-1.5-2.295-1.735-2.597-1.761-4.559-.387m7.813-.398c.721.289 1.584.253 1.916-.079s-.258-.568-1.312-.525c-1.165.048-1.402.285-.604.604M860 1026.941c0 .518.445 1.216.989 1.552.566.35.734-.051.393-.941-.665-1.732-1.382-2.049-1.382-.611m23.49.075c-.346.559-.954.815-1.352.57-.397-.246-.788.421-.868 1.483-.182 2.41 1.568 2.54 2.438.181.356-.963 1.129-2.081 1.719-2.485.734-.502.697-.739-.118-.75-.655-.008-1.474.442-1.819 1.001m-65.49.953c0 .532.675.709 1.5.393.825-.317 1.5-.753 1.5-.969s-.675-.393-1.5-.393-1.5.436-1.5.969m69.079.614c.048 1.165.285 1.402.604.605.289-.722.253-1.585-.079-1.917s-.568.258-.525 1.312m-91.079-.205c0 .207.788.995 1.75 1.75 1.586 1.243 1.621 1.208.378-.378-1.307-1.666-2.128-2.195-2.128-1.372m40 .622c-.793.49-1.11 1.223-.704 1.629.405.406 1.262.213 1.904-.429 1.511-1.511.668-2.354-1.2-1.2m7 1.393c0 .216.698.661 1.552.989.89.341 1.291.173.941-.393-.587-.951-2.493-1.406-2.493-.596m10 .607c0 .55.477 1 1.059 1s.781-.45.441-1-.816-1-1.059-1-.441.45-.441 1m-52 .378c0 .207.788.995 1.75 1.75 1.586 1.243 1.621 1.208.378-.378-1.307-1.666-2.128-2.195-2.128-1.372m33.5 1.622c-.34.55-.141 1 .441 1s1.059-.45 1.059-1-.198-1-.441-1-.719.45-1.059 1m-10.5 1c0 .55.477 1 1.059 1s.781-.45.441-1-.816-1-1.059-1-.441.45-.441 1m13.333 1.5c0 .825.655 1.5 1.456 1.5 1.181 0 1.221-.283.211-1.5-.685-.825-1.34-1.5-1.456-1.5s-.211.675-.211 1.5m31.167-.5c.34.55 1.068 1 1.618 1s.722-.45.382-1-1.068-1-1.618-1-.722.45-.382 1m8.965.047c-1.755.646-1.666.802.832 1.459 3.215.844 4.015.466 2.317-1.095-.653-.6-2.065-.763-3.149-.364m-66.614 2.204c.757.757 1.486.812 2.137.161s.259-1.043-1.149-1.149c-1.61-.121-1.854.122-.988.988m43.36.148c.709.77 1.447 1.25 1.639 1.067.593-.564-.91-2.466-1.948-2.466-.54 0-.401.63.309 1.399m-47.398.284c.721.289 1.584.253 1.916-.079s-.258-.568-1.312-.525c-1.165.048-1.402.285-.604.604m9.523.884c-.738 1.922 1.114 4.133 2.11 2.52.37-.598.195-1.087-.387-1.087a1.063 1.063 0 0 1-1.059-1.059c0-.582.419-.8.931-.484s1.213.118 1.559-.441-.088-1.016-.962-1.016c-.875 0-1.861.705-2.192 1.567m18.664.548c0 1.139.528 1.876 1.188 1.656 1.851-.617 2.061-2.461.354-3.116-1.081-.415-1.542.022-1.542 1.46m40-1.115c-1.282.828-1.246.972.25.985.962.008 1.75-.435 1.75-.985 0-1.22-.113-1.22-2 0m-72.264.598c-.846.846.276 3.402 1.493 3.402.617 0 .559-.551-.148-1.403-.894-1.077-.865-1.523.127-1.921.711-.285.805-.554.209-.597s-1.353.19-1.681.519M807.5 1040c.34.55.816 1 1.059 1s.441-.45.441-1-.477-1-1.059-1-.781.45-.441 1m13.313.683c.721.289 1.584.253 1.916-.079s-.258-.568-1.312-.525c-1.165.048-1.402.285-.604.604m33.687.317c-.34.55-.141 1 .441 1s1.059-.45 1.059-1-.198-1-.441-1-.719.45-1.059 1m-44.993 1.989c-.35.566.051.734.941.393 1.732-.665 2.049-1.382.611-1.382-.518 0-1.216.445-1.552.989m17.208 1.312c-.748 1.95 1.723 2.417 2.88.544.422-.682.277-.884-.355-.493-.588.363-1.25.118-1.471-.545-.254-.761-.643-.579-1.054.494M814.5 1049c.34.55.816 1 1.059 1s.441-.45.441-1-.477-1-1.059-1-.781.45-.441 1m11.222 4.011c-2.168 2.533-2.199 3.355-.08 2.169.903-.505 2.478-.7 3.5-.433 1.285.336 1.858-.05 1.858-1.253 0-1.384-.288-1.5-1.411-.568-.868.721-1.64.801-2.006.208-.328-.53-.03-1.191.661-1.47s.794-.542.228-.585c-.565-.043-1.803.826-2.75 1.932m6.945-1.344c-2.471 2.471 1.155 3.011 5.833.869l3-1.374-4.083-.081c-2.246-.044-4.384.219-4.75.586m-11.854 3.016c.721.289 1.584.253 1.916-.079s-.258-.568-1.312-.525c-1.165.048-1.402.285-.604.604"/></svg>