<svg xmlns="http://www.w3.org/2000/svg" width="2762" height="1478"><path fill="currentColor" fill-rule="evenodd" d="M0 739v739.001l1381.25-.251 1381.25-.25.251-738.75.25-738.75H0zm.497.5c0 406.45.114 572.575.253 369.168s.139-535.958 0-739S.497 333.05.497 739.5M258 926.122c-51.96 5.269-102.928 29.809-140.267 67.537-20.144 20.355-31.913 36.883-44.745 62.841-30.262 61.216-31.723 128.662-4.127 190.479 17.759 39.78 46.515 73.647 83.639 98.502 11.286 7.557 35.164 19.509 49.717 24.886 10.167 3.757 31.981 9.5 44.783 11.791 6.244 1.117 191.502 1.342 1106.5 1.342h1099l12-2.225c52.033-9.648 94.686-32.015 129.529-67.924 34.857-35.923 54.585-76.807 63.142-130.851 1.916-12.101 1.638-42.679-.514-56.464-12.592-80.681-63.432-148.021-136.657-181.009-5.225-2.354-16.025-6.42-24-9.035-13.312-4.366-19.798-5.935-38-9.192-7.87-1.409-2186.175-2.08-2200-.678m27.294 115.079c-1.214.586-3.464 2.878-5 5.093-2.784 4.013-2.795 4.096-3.105 22.867-.175 10.634.079 18.839.584 18.839.491 0 .969-1.35 1.06-3 .324-5.828.508-6.512 2.08-7.752 1.42-1.121 1.403-1.189-.163-.643-1.306.454-1.75.074-1.75-1.498 0-1.159.563-2.114 1.25-2.122.864-.011.91-.243.151-.75-.604-.404-1.109-2.31-1.123-4.235-.013-1.925-.121-5.75-.24-8.5s-.119-5.338-.002-5.75c.479-1.679.721-2.813.854-4 .099-.881.457-.807 1.212.25.866 1.213.98 1.082.595-.685-.291-1.339.087-2.402.977-2.743.799-.307 1.187-.988.861-1.515-.629-1.018 2.198-2.832 6.407-4.109l2.558-.776-2.5-.018c-1.375-.01-3.493.461-4.706 1.047m-.215 5.382c.048 1.165.285 1.402.604.605.289-.722.253-1.585-.079-1.917s-.568.258-.525 1.312m504.745 22.328c-4.222 1.434-7.963 2.895-8.314 3.245-.35.35 1.17 4.23 3.378 8.622s3.737 8.264 3.397 8.604-5.493.618-11.452.618H766v18h41.859l-1.912 6.75c-1.051 3.713-3.597 11.813-5.658 18l-3.746 11.25H763v17.937l11.75.281 11.75.282v18l-9.75.286-9.75.286V1199h8.441c4.71 0 8.722.455 9.077 1.029.733 1.187-2.454 11.554-5.911 19.226-1.299 2.885-4.578 8.36-7.286 12.168l-4.923 6.924 8.428 6.43c4.635 3.537 8.708 6.029 9.051 5.538 13.563-19.418 18.267-30.019 21.699-48.898.359-1.976.872-2.062 9.901-1.656l9.523.428V1181h-18v-19h9.5c8.579 0 9.5.18 9.5 1.851 0 1.334 1.992 2.731 7.129 5 3.921 1.732 7.714 3.149 8.429 3.149 2.689 0 6.371-24.386 7.135-47.25l.594-17.75H834l-.035 4.25c-.142 17.051-4.169 49.75-6.127 49.75-.461 0-.838-3.825-.838-8.5v-8.5h-6.5c-3.575 0-6.5-.292-6.5-.65 0-.357 2.54-6.898 5.645-14.534 6.315-15.531 6.338-15.279-1.645-17.906-6.302-2.074-5.641-2.91 2.3-2.91h7.7v-17.928l-9.613-.286-9.614-.286-2.177-6c-2.514-6.931-7.761-17.571-8.555-17.349-.298.083-3.995 1.325-8.217 2.76M903 1068.72c-4.125 1.405-7.679 2.709-7.898 2.898s1.244 3.935 3.25 8.324 3.648 8.448 3.648 9.019c0 .656-4.059 1.039-11 1.039h-11v17l8.75.032c4.813.017 14.15.13 20.75.25l12 .218-.303 2.844c-.166 1.564-2.555 9.802-5.309 18.307l-5.007 15.464-9.19-.122c-5.055-.066-12.47-.092-16.479-.057l-7.287.064.287 9.229.288 9.228 10.5.022 10.5.021.255 9c.14 4.95-.113 9.565-.562 10.254-.532.818-3.927 1.34-9.755 1.5l-8.938.246-.288 9.25-.287 9.25H900v48.07l10.25-.285 10.25-.285.161-23.5.161-23.5 10.089-.285 10.089-.285V1183h-20v-20h24v-19h-8c-4.824 0-8-.409-8-1.03 0-.567 2.297-7.345 5.104-15.063s4.935-14.201 4.729-14.407-2.502-1.287-5.103-2.402c-6.7-2.872-6.127-4.358 1.52-3.94l6.25.342.286-9.142.286-9.141-8.432.526c-11.737.732-13.612.142-13.448-4.234.135-3.593-6.749-18.754-8.692-19.142-.55-.11-4.375.949-8.5 2.353m138.547-1.796c-.368.595-.979 3.893-1.358 7.329l-.689 6.247-36 .5-36 .5v17l33.757-.17c37.614-.19 35.946-.51 34.801 6.67l-.558 3.5-23.122.268-23.122.268-.617 3.732c-.339 2.053-.622 21.394-.628 42.982L988 1195h-26v17h58c31.9 0 58 .207 58 .459s-2.935 3.482-6.523 7.177-6.175 7.033-5.75 7.417c.425.385 3.923 1.717 7.773 2.961 10.774 3.481 20.807 7.587 34.711 14.205l12.712 6.051 7.788-7.252c4.284-3.989 7.917-7.584 8.074-7.99.46-1.19-26.153-12.407-40.285-16.98-7.15-2.313-13.427-4.621-13.95-5.127-.58-.562 10.239-.921 27.75-.921h28.7v-17h-28v-85.967l-26.75-.267-26.75-.266.351-4.5c.194-2.475.419-4.567.5-4.649s16.655-.307 36.83-.5l36.681-.351.319-8.338c.175-4.586.131-8.523-.098-8.75s-16.139-.412-35.357-.412c-32.868 0-34.9-.104-34.262-1.75.373-.963.928-3.837 1.233-6.387l.555-4.637-6.376-.647a869 869 0 0 1-11.018-1.192c-2.83-.332-4.903-.123-5.311.537m151.363 2.826c-10.288 27.182-22.109 49.356-35.541 66.671-2.953 3.807-5.369 7.524-5.369 8.26 0 1.739 10.284 21.318 11.197 21.319.384 0 3.291-3.622 6.46-8.049 4.751-6.635 5.886-7.716 6.462-6.157.385 1.04.576 21.65.424 45.799s-.061 45.595.2 47.657l.476 3.75H1198l.026-66.75.026-66.75 2.317-6.5c1.274-3.575 4.888-12.746 8.031-20.38s5.51-14.413 5.26-15.065c-.37-.963-16.604-6.555-19.03-6.555-.374 0-1.148 1.237-1.72 2.75m944.247.943c-4.589 1.997-8.56 4.194-8.824 4.883-.265.688 1.728 4.328 4.427 8.088 5.661 7.886 11.926 18.153 12.408 20.336.384 1.736.752 1.699-18.918 1.874L2112 1106v21h63v29h-75v21h35c19.25 0 35 .259 35 .575 0 1.325-8.317 14.436-11.563 18.227-8.797 10.278-34.873 25.678-54.473 32.17-4.105 1.36-7.642 2.589-7.86 2.73s1.367 2.179 3.522 4.528c2.156 2.348 5.448 6.408 7.316 9.02 1.98 2.769 4.179 4.75 5.271 4.75 3.164 0 20.812-6.933 29.787-11.702 19.728-10.482 33.615-21.893 43.498-35.744 2.573-3.605 4.976-6.528 5.34-6.495s2.687 3.246 5.162 7.143c11.666 18.366 33.803 34.678 59.24 43.651l8.739 3.083 3.612-5.718c1.986-3.145 5.444-7.615 7.684-9.933 2.949-3.052 3.679-4.354 2.649-4.722-28.893-10.29-43.416-18.265-55.817-30.647-6.423-6.412-16.107-18.477-16.107-20.065 0-.468 15.3-.851 34-.851h34v-21h-74v-29h63v-21h-17c-9.35 0-17-.286-17-.636 0-.349 3.758-6.537 8.351-13.75 9.895-15.539 10.892-17.347 9.902-17.954-.803-.492-21.7-6.66-22.564-6.66-.281 0-3.309 5.287-6.727 11.75s-8.223 15.237-10.676 19.5l-4.461 7.75h-23.913c-13.151 0-23.912-.367-23.912-.816s2.735-2.123 6.078-3.721c3.342-1.598 6.283-3.238 6.534-3.644 1.134-1.835-18.644-30.853-20.983-30.787-.621.017-4.884 1.665-9.472 3.661m174.11 1.066c-3.978 2.607-7.241 5.075-7.25 5.483s4.88 6.556 10.866 13.663 11.581 13.92 12.436 15.14c.873 1.246 2.179 1.978 2.982 1.67 2.69-1.032 15.699-10.96 15.699-11.98 0-2.372-24.308-28.745-26.478-28.726-.562.005-4.277 2.142-8.255 4.75m-1054.574-2.401c-.287.747-.85 10.68-1.251 22.072-.558 15.86-1.064 21.049-2.157 22.142-1.146 1.146-5.557 1.428-22.356 1.428H1210v20h20.031c17.698 0 20.106.192 20.665 1.651.99 2.579-2.426 18.682-6.672 31.454-7.305 21.972-17.806 39.924-32.588 55.709l-8.722 9.314 8.393 7.85 8.393 7.85 5.842-5.664c16.364-15.863 30.453-38.91 38.902-63.634 1.791-5.24 3.579-9.528 3.973-9.529.854-.001 10.408 16.097 14.383 24.233l2.801 5.733 2.549-1.623c1.403-.893 5.365-3.611 8.806-6.039 5.744-4.053 6.162-4.594 5.105-6.61-2.929-5.588-14.371-22.147-17.777-25.727l-3.791-3.985-4.729 2.092c-2.602 1.151-4.947 1.875-5.213 1.609-.265-.265.051-2.44.703-4.833s1.713-7.726 2.358-11.851l1.173-7.5h34.915l.334 5.5c.865 14.251-3.158 60.452-6.478 74.393-2.574 10.807-2.809 10.927-20.476 10.425-8.184-.233-14.88-.264-14.88-.071 0 .194.704 1.713 1.564 3.377s2.385 6.253 3.389 10.2l1.825 7.176 14.861-.007c17.704-.009 21.782-1.006 27.787-6.79 5.472-5.27 7.795-12.312 10-30.31 1.77-14.439 4.166-49.801 5.194-76.643l.68-17.75h-56.38l.696-23.5.695-23.5h-10.549c-7.964 0-10.676.333-11.069 1.358m-403.026.309c-.367.366-.667 21.943-.667 47.948 0 36.886-.34 49.874-1.545 59.067-2.793 21.305-11.102 41.358-22.627 54.609-4.656 5.354-4.988 6.04-3.365 6.948.991.555 4.708 3.474 8.259 6.486l6.457 5.478 2.924-2.801c8.349-8 17.879-25.437 22.409-41.002 6.196-21.294 6.615-26.199 7.191-84.15l.53-53.25h-9.45c-5.197 0-9.75.3-10.116.667m1517.047 6.106-17.786.273.286 9.727.286 9.727 47.25.26 47.25.26v64.955c0 63.195-.052 64.983-1.934 65.99-1.064.569-6.853 1.035-12.865 1.035h-10.931l2.997 9.25c1.649 5.088 3.149 9.813 3.334 10.5.414 1.537 6.645 1.606 18.845.209 11.156-1.278 16.081-3.791 19.541-9.972l2.513-4.487.273-78.75.274-78.75-16.774-.15c-34.955-.312-65.388-.341-82.559-.077m-1148.013 3.356c-3.19 1.63-6.045 3.604-6.345 4.386-.301.783 1.91 5.375 4.912 10.204s6.668 10.926 8.147 13.548l2.689 4.767 8.198-4.267c4.509-2.347 8.332-4.995 8.496-5.884.55-2.991-16.052-25.934-18.67-25.8-.895.046-4.238 1.417-7.427 3.046m-901.888 8.554c.721.289 1.584.253 1.916-.079s-.258-.568-1.312-.525c-1.165.048-1.402.285-.604.604m5.955.042c1.797.222 4.497.218 6-.01 1.503-.229.032-.411-3.268-.405s-4.529.192-2.732.415m10.501-.032c.973.254 2.323.237 3-.037s-.119-.481-1.769-.461-2.204.244-1.231.498m277.944 4.557c-3.372 8.77-4.769 12.553-20.357 55.147-8.273 22.607-18.6 50.366-22.949 61.687s-7.907 20.884-7.907 21.25 6.028.666 13.396.666h13.396l3.966-11.25c2.181-6.187 4.967-14.295 6.191-18.016l2.225-6.767 26.16.267 26.161.266 6.088 17.5 6.089 17.5 14.129.277 14.13.277-2.548-6.777A12645 12645 0 0 0 681.498 1193c-10.049-26.369-26.945-71.063-34.212-90.5-6.43-17.2-4.433-15.5-18.205-15.5h-11.849zM714 1158.932V1231h26.013l-.256-71.621-.257-71.621-12.75-.447-12.75-.447zm-399.595-68.79c-1.898 2.134-1.897 2.136.345.759 1.238-.76 2.25-1.724 2.25-2.142 0-1.205-.557-.909-2.595 1.383m-37.405 4.25c0 2.049.419 3.467.931 3.151s.709-1.796.439-3.287c-.743-4.098-1.37-4.036-1.37.136m.079 10.191c.048 1.165.285 1.402.604.605.289-.722.253-1.585-.079-1.917s-.568.258-.525 1.312m42.69 2.253c1.403.891 9.018.71 9.965-.236.33-.33-2.063-.593-5.317-.585-3.38.009-5.373.361-4.648.821m15.231.223c0 .582.45.781 1 .441s1-.816 1-1.059-.45-.441-1-.441-1 .477-1 1.059M2392.741 1119l.553 12H2333v20.064l22.06-.139c12.133-.076 22.3.101 22.592.394.971.971-1.253 3.783-10.244 12.953-10.615 10.826-19.854 18.324-32.308 26.219-5.178 3.282-8.992 6.348-8.734 7.021.667 1.737 12.038 17.41 12.662 17.452.291.02 5.691-3.838 12-8.572 13.488-10.122 30.398-25.527 36.263-33.036 3.371-4.316 4.317-5.02 5.033-3.742.484.865.711 10.555.504 21.531-.305 16.214-.653 20.133-1.852 20.891-.812.513-6.702.94-13.089.949l-11.612.015 3.105 10.135 3.105 10.135 12.008-.553c12.862-.592 18.709-2.108 24.158-6.264 5.763-4.396 6.349-8.47 6.349-44.135V1151h24v-20h-24v-24h-22.811zm-1617.651-6.933c-2.976 1.056-5.609 2.119-5.852 2.361-.242.243 1.371 5.083 3.585 10.757s4.335 11.557 4.712 13.074c.378 1.518.99 2.947 1.361 3.176.37.23 3.808-.609 7.639-1.862 7.862-2.573 7.669-2.003 4.267-12.573-3.62-11.25-6.51-17.007-8.497-16.927-.993.04-4.24.937-7.215 1.994m113.787.233-6.623 2.2 2.872 7c1.579 3.85 3.82 9.991 4.979 13.646l2.108 6.645 7.393-2.486c4.067-1.367 7.394-3.036 7.394-3.708 0-1.756-5.418-17.416-7.559-21.847-.996-2.062-2.291-3.727-2.876-3.7-.586.028-4.045 1.041-7.688 2.25m1410.887 68.7.263 68H2322v-136h-22.5zM277.27 1118.069c-.173 2.297.298 2.499 1.079.463.31-.807.227-1.676-.185-1.931-.412-.254-.814.406-.894 1.468m-.27 3.99c0 .582.45.781 1 .441s1-.816 1-1.059-.45-.441-1-.441-1 .477-1 1.059m349.62 4.691c-.801 2.612-4.643 13.963-8.538 25.222S611 1172.57 611 1172.722s8.373.278 18.607.278c17.333 0 18.557-.12 17.875-1.75-3.259-7.796-16.38-43.431-16.937-46-.981-4.53-2.22-4.057-3.925 1.5m383.783-3.357c-.299.779-.4 2.922-.223 4.762l.32 3.345 39.305.262 39.306.261-.306-4.761-.305-4.762-38.777-.262c-32.703-.221-38.862-.04-39.32 1.155M277.05 1140c-.071 8.8.245 16 .703 16s.773-3.487.702-7.75c-.076-4.606.312-8.048.958-8.485.775-.524.768-.739-.026-.75-.729-.01-1.07-2.605-.988-7.515.069-4.125-.177-7.5-.547-7.5s-.731 7.2-.802 16m129.45-13.834c-2.2.515-4.754 1.009-5.677 1.099-.922.09-1.458.517-1.191.949.268.432-.189.786-1.014.786s-1.766.431-2.092.957c-.325.527 1.969.077 5.098-1s6.519-1.957 7.533-1.957c1.013 0 1.843-.45 1.843-1s-.113-.948-.25-.885-2.05.536-4.25 1.051m7.764-.448c1.52.229 3.77.223 5-.014s-.014-.425-2.764-.418-3.756.202-2.236.432m8.736.198c.825.47 3.075 1.127 5 1.46l3.5.606-3.5-1.415c-4.064-1.643-7.533-2.095-5-.651m-32.195 7.335c-5.761 4.808-9.214 7.239-9.957 7.011-.427-.131-.489.51-.138 1.424.487 1.269.23 1.505-1.088.999-1.007-.386-1.477-.259-1.128.306.825 1.335-1.372 5.202-2.544 4.478-.523-.323-.982.002-1.02.722s-.398.478-.797-.538c-.707-1.796-.766-1.796-2.147 0-.781 1.016-1.044 1.531-.584 1.145.46-.387 1.515-.024 2.345.806 1.161 1.161 1.264 2.014.448 3.702-1.051 2.177-1.06 2.174-1.143-.306-.063-1.913-.298-2.16-.998-1.054-.539.852-.549 2.129-.025 3.109.49.914.7 2.963.468 4.553-.334 2.289-.001 1.954 1.6-1.608 5.533-12.308 9.373-17.485 17.951-24.203 1.899-1.487 3.002-2.724 2.452-2.749s-2.213.966-3.695 2.203m619.594 11.153c-1.234 3.214.058 6.954 2.601 7.53 1.375.311 18.925.566 39 .566h36.5v-9l-38.777-.262c-32.839-.221-38.861-.043-39.324 1.166M375 1145c0 .55.477 1 1.059 1s.781-.45.441-1-.816-1-1.059-1-.441.45-.441 1m35.166-.124c-1.067.677-1.007.971.302 1.473.9.346 1.382.217 1.072-.285-.311-.502.229-1.119 1.198-1.372 1.235-.322 1.313-.49.262-.561-.825-.055-2.1.28-2.834.745m10.834-.483c0 .216.675.652 1.5.969s1.5.139 1.5-.393c0-.533-.675-.969-1.5-.969s-1.5.177-1.5.393M406.5 1146c-.34.55-.141 1 .441 1s1.059-.45 1.059-1-.198-1-.441-1-.719.45-1.059 1m18.5 0c0 .55.702 1 1.559 1s1.281-.45.941-1-1.041-1-1.559-1-.941.45-.941 1m-24 3c-1.375 1.076-2.007 1.966-1.405 1.978s1.91-.878 2.905-1.978c2.28-2.52 1.721-2.52-1.5 0m30.094-.25c.052.412 2.19 2.548 4.75 4.744 4.578 3.928 3.186 1.32-1.731-3.244-2.589-2.403-3.168-2.691-3.019-1.5m-35.713 6.507c-2.897 4.433-3.584 5.743-3.011 5.743.269 0 1.855-2.025 3.525-4.5 1.671-2.475 2.715-4.497 2.321-4.493s-1.67 1.466-2.835 3.25M277 1158c0 .55.477 1 1.059 1s.781-.45.441-1-.816-1-1.059-1-.441.45-.441 1m0 9.5c0 4.308.227 7.606.505 7.328.795-.795.966-13.691.191-14.465-.383-.383-.696 2.829-.696 7.137m733.667-2.833c-.367.366-.667 2.391-.667 4.5V1173h39.427c43.58 0 40.689.455 39.737-6.25l-.391-2.75h-38.72c-21.296 0-39.02.3-39.386.667m-639.819 8.416a109 109 0 0 1-.317 3.917c-.091.825.194 2.243.634 3.15.543 1.122.288 1.846-.795 2.261-1.134.436-1.426.177-1.013-.9.319-.831.144-1.511-.388-1.511-1.275 0-1.251 2.708.031 3.5.55.34 1 1.299 1 2.13 0 1.264-.22 1.293-1.339.174-.737-.737-1.603-2.007-1.926-2.822s-.524-.277-.449 1.196.493 2.459.926 2.191.788-.048.788.489c0 .536-.439 1.125-.974 1.309-1.613.551.017 4.611 2.066 5.147 1.05.274 1.908.016 1.908-.574s.236-.838.524-.55c.287.288.225 1.301-.14 2.251-.525 1.369-.838 1.45-1.508.393q-.846-1.338-.782 1.666c.035 1.65.29 2.442.565 1.759.38-.939.867-.876 2.002.259.825.825 1.983 1.202 2.574.837.637-.394.783-.194.36.49-.459.745.108 1.16 1.596 1.17 1.858.013 2.016.205.809.985-1.282.828-1.246.972.25.985.962.008 1.75-.435 1.75-.985s.675-1 1.5-1 1.493.787 1.485 1.75c-.013 1.496-.157 1.532-.985.25-.796-1.232-.972-1.128-.985.583-.008 1.192.627 2.084 1.485 2.084.825 0 1.5-.375 1.5-.834s.45-.833 1-.833 1 .675 1 1.5.337 1.405.75 1.288c1.31-.371 5.25 2.64 5.25 4.012 0 .725.5 1.009 1.112.631 1.911-1.181 2.906 1.831 1.066 3.23-1.56 1.186-1.561 1.278-.011 1.307 2.09.04 2.842 1.99 1.655 4.296-.499.971-.551 1.705-.115 1.632 2.028-.34 3.271.214 3.043 1.354-.137.688.512 1.192 1.444 1.12 1.03-.078 2.088.999 2.698 2.75.552 1.584 1.466 2.88 2.031 2.88.683 0 .709-.839.077-2.5-.611-1.607-.602-2.5.025-2.5.536 0 .975.661.975 1.469 0 .807.563 1.331 1.25 1.164s.913-.116.5.114c-.413.231-.75 1.057-.75 1.836 0 1.17-2.303 1.891-5.083 1.591-.321-.035-.584.58-.584 1.366 0 .879.417 1.103 1.084.582 1.821-1.423 6.583-2.248 6.583-1.141 0 .56-.45 1.019-1 1.019s-1 .55-1 1.223c0 .672 1.325-.228 2.944-2s3.306-3.209 3.75-3.191c.443.017.007.638-.969 1.378-1.652 1.253-1.602 1.38.715 1.823 1.37.262 2.727-.021 3.016-.628.289-.608.274-.092-.033 1.145-.316 1.277-.096 2.25.51 2.25.587 0 1.067-.378 1.067-.839 0-.462 1.391-.757 3.091-.656 1.854.111 3.304-.371 3.624-1.204.434-1.133.876-1.076 2.409.311 1.767 1.599 1.992 1.593 3.876-.112 1.134-1.026 2-1.31 2-.655 0 .635-.436 1.155-.969 1.155s-.675.765-.316 1.699c.408 1.063.802 1.251 1.052.5.22-.659.839-1.199 1.375-1.199.537 0 .655.52.263 1.155-.443.715-.275.883.44.44.691-.427 1.155-.063 1.155.905 0 .89.457 1.335 1.016.99.559-.346.685-1.16.279-1.809-1.185-1.898-1.396-4.862-.298-4.183.552.341 1.003 1.268 1.003 2.061s.337 1.475.75 1.518 1.506.222 2.431.401c1.1.213 1.495-.159 1.143-1.077-.296-.77-1.24-1.401-2.098-1.401-2.084 0-.692-1.306 1.798-1.686 1.084-.165 1.86.199 1.724.81s.542 1.243 1.507 1.405c.965.163 1.507-.104 1.205-.593s.163-2.137 1.032-3.662c1.137-1.996 1.422-2.176 1.015-.642-.338 1.271-.046 2.331.725 2.627.915.351 1.245-.489 1.132-2.882-.103-2.197.299-3.377 1.15-3.377 1.586 0 1.285-3.234-.351-3.779-.64-.213-1.163-.786-1.163-1.273s.68-.624 1.511-.305c1.128.433 1.348.108.866-1.282-.584-1.681-.496-1.668.9.128.85 1.094 1.334 2.331 1.075 2.75-.937 1.516.246.712 2.048-1.393 1.497-1.749 1.545-2.039.254-1.543-.875.335-1.899.11-2.276-.501-.397-.641-.235-.832.382-.45.588.363 1.237.156 1.443-.46.219-.657 1.802.033 3.835 1.672 2.091 1.686 1.283.512-2.038-2.964-3.025-3.165-6.754-6.663-8.287-7.772l-2.788-2.017-6.149 3.663c-8.513 5.071-16.249 6.888-26.778 6.289-9.832-.559-17.278-3.712-25.134-10.642-7.855-6.93-14.139-18.697-15.344-28.732-.644-5.367-1.443-6.946-1.672-3.306M393 1183.941c0 .518.445 1.216.989 1.552.566.35.734-.051.393-.941-.665-1.732-1.382-2.049-1.382-.611m617.667 1.726c-.367.366-.667 2.616-.667 5V1195h39.417c26.914 0 39.529-.337 39.77-1.062.195-.584.185-2.834-.021-5l-.376-3.938h-38.728c-21.301 0-39.029.3-39.395.667m-639.322 1.876c-.326.849-.311 1.824.031 2.167.343.343.624-.153.624-1.102 0-1.05.452-1.447 1.155-1.013.715.443.883.275.44-.44-.96-1.555-1.543-1.454-2.25.388m-4.345 1.866c0 .19.675.906 1.5 1.591.865.718 1.5.815 1.5.229 0-.558-.675-1.274-1.5-1.591s-1.5-.419-1.5-.229m91 .65c0 .582.45.781 1 .441s1-.816 1-1.059-.45-.441-1-.441-1 .477-1 1.059M364 1192c0 .55.477 1 1.059 1s.781-.45.441-1-.816-1-1.059-1-.441.45-.441 1m99.198.868c-.954.597-.325 1.561 2.355 3.605 3.199 2.439 3.515 2.522 2.517.658-.627-1.172-1.542-2.131-2.032-2.131s-1.037-.663-1.215-1.474c-.205-.936-.798-1.176-1.625-.658m17.007 9.92c-.171 2.076.029 2.263 1.296 1.211 1.841-1.528 1.96-3.666.203-3.666-.712 0-1.387 1.105-1.499 2.455m-4.205-.896c0 .698-.539.916-1.25.507-.687-.396-.901-.336-.474.133.426.469 1.776.993 3 1.163s1.774-.033 1.224-.454a13 13 0 0 1-1.75-1.669c-.418-.504-.75-.362-.75.32m-79.558 13.534c.311 2.832 3.558 6.713 3.558 4.252 0-.805-.675-1.723-1.5-2.04s-1.5-1.066-1.5-1.666.445-.815.989-.479c.566.35.734-.051.393-.941-.927-2.415-2.236-1.825-1.94.874m619.246-.989c-2.547 1.931-30.162 12.733-42.452 16.605l-10.264 3.235 4.786 5.111c2.632 2.812 5.776 6.394 6.986 7.962l2.2 2.849 12.459-4.089c14.026-4.603 31.095-11.681 39.189-16.249l5.41-3.053-4.751-4.265c-6.366-5.715-10.962-9.55-11.395-9.511-.196.017-1.171.65-2.168 1.405m-614.085 2.396c-.283.459.12.834.897.834s1.18-.375.897-.834-.687-.833-.897-.833-.614.375-.897.833m35.397 2.638c0 1.015 2.92 2.467 3.4 1.691.318-.514-.317-1.169-1.411-1.455s-1.989-.392-1.989-.236m-28.436 5.822c.376.986.935 1.541 1.243 1.233s.001-1.114-.683-1.793c-.988-.98-1.102-.865-.56.56m14.436 3.766c0 .582.45.781 1 .441s1-.816 1-1.059-.45-.441-1-.441-1 .477-1 1.059m12-.059c0 .55.45 1 1 1s1-.45 1-1-.45-1-1-1-1 .45-1 1m7.5 0c.34.55 1.068 1 1.618 1s.722-.45.382-1-1.068-1-1.618-1-.722.45-.382 1m-15 2c.34.55.816 1 1.059 1s.441-.45.441-1-.477-1-1.059-1-.781.45-.441 1m-16.687 2.683c.721.289 1.584.253 1.916-.079s-.258-.568-1.312-.525c-1.165.048-1.402.285-.604.604m12.646.384c-1.076 1.741.149 2.11 1.521.457.789-.95.865-1.524.201-1.524-.584 0-1.36.48-1.722 1.067m-6.459 2.492c0 .857.45 1.281 1 .941s1-1.041 1-1.559-.45-.941-1-.941-1 .702-1 1.559m10.5-.559c-1.908.82-1.897.863.25.93 1.238.038 2.25-.38 2.25-.93s-.113-.968-.25-.93c-.137.039-1.15.457-2.25.93m2220.899 83.767c-1.778 5.872-5.202 13.474-8.213 18.233-7.01 11.081-20.567 21.407-32.884 25.045-4.524 1.337-6.358 3.701-3.535 4.556 5.872 1.778 13.474 5.202 18.233 8.213 11.081 7.01 21.407 20.567 25.045 32.884 1.337 4.524 3.701 6.358 4.556 3.535 1.778-5.872 5.202-13.474 8.213-18.233 7.01-11.081 20.567-21.407 32.884-25.045 4.524-1.337 6.358-3.701 3.535-4.556-5.872-1.778-13.474-5.202-18.233-8.213-11.081-7.01-21.407-20.567-25.045-32.884-1.337-4.524-3.701-6.358-4.556-3.535"/></svg>